<svg width="60" height="60" viewBox="0 0 60 60" fill="none" xmlns="http://www.w3.org/2000/svg">
<path d="M48.8672 3.25195H49.3066L49.5996 3.36914L49.8633 3.60352L49.9805 3.80859L50.0977 4.39453L50.4199 6.73828L50.5371 6.67969L51.3574 5.85938L51.7969 5.56641L52.1777 5.39062L52.6465 5.27344L52.8516 5.24414H53.3203L53.8184 5.33203L54.1992 5.47852L54.5215 5.6543L54.8145 5.88867L55.0781 6.15234L55.2832 6.44531L55.4883 6.88477L55.6055 7.35352L55.6348 7.67578V7.93945L55.5176 8.52539L55.3711 8.90625L55.166 9.28711L54.9316 9.58008L54.668 9.87305L54.1992 10.3418L54.0527 10.459L54.0234 10.5176H54.2871L56.7773 10.8691L57.0996 10.957L57.3633 11.1035L57.5391 11.3086L57.6562 11.543L57.6855 11.6602V12.041L57.5684 12.334L57.334 12.627L51.2695 18.6914H51.2109V18.75L50.918 18.9258L50.7422 18.9844H50.332L48.6621 18.75L46.6113 18.457L46.1426 18.3984L46.084 18.5156L44.8828 19.7168L44.9414 19.9805L44.9707 20.2148L44.8828 20.5957L44.5605 21.2988L44.1211 22.2656L43.7988 22.9688L43.6816 23.2324L43.7109 23.3789L44.0039 23.9062L44.2383 24.375L44.5605 25.0488L44.8828 25.8398L45.2344 26.8652L45.4395 27.5977L45.6738 27.7148L46.8457 28.1543L48.1641 28.6523L48.4863 28.8281L48.7207 29.0918L48.8086 29.2969L48.8379 29.4434V34.1602L48.7207 34.4824L48.5449 34.7168L48.3398 34.8633L47.5781 35.1562L45.4688 35.9473L45.2344 36.7676L44.8535 37.8516L44.502 38.6719L44.1504 39.4043L43.7988 40.0781L43.6816 40.2832L43.7109 40.4297L44.2383 41.5723L44.6777 42.5391L44.9414 43.1543L44.9707 43.3008V43.5059L44.8535 43.8574L44.6191 44.1504L41.543 47.2266L41.2793 47.4023L40.9863 47.4902H40.7227L40.3125 47.3438L39.7559 47.0801L38.7891 46.6406L37.9395 46.2598L37.7637 46.2012L37.1191 46.5527L36.6211 46.8164L35.7129 47.2266L34.8633 47.5488L34.043 47.8125L33.4863 47.959H33.4277L33.3398 48.2227L33.0176 49.1016L32.6074 50.1855L32.3438 50.8594L32.168 51.0938L31.9922 51.2402L31.6699 51.3574L31.4941 51.3867H27.0117L26.6602 51.2988L26.3965 51.123L26.2207 50.918L25.9863 50.3613L25.5176 49.1016L25.166 48.1641L25.1074 47.9883L24.1113 47.6953L23.2617 47.4023L22.5586 47.1094L22.0898 46.9043L21.6211 46.6699L20.918 46.2891L20.8301 46.2305H20.625L20.2734 46.4062L18.457 47.2266L17.9883 47.4316L17.6953 47.4902L17.4023 47.4609L17.1387 47.3438L16.8457 47.0801L15.0586 45.293V45.2344L14.9414 45.1758V45.1172H14.8828L14.6777 44.8828L13.7695 43.9746L13.5938 43.623V43.2129L13.7695 42.7734L14.2969 41.6016L14.7949 40.5176L14.8535 40.3711L14.8242 40.1953L14.502 39.6387L14.2676 39.1699L13.916 38.4082L13.5938 37.5879L13.2422 36.5332L13.0664 35.9473L11.3379 35.3027L10.2539 34.8926L9.99023 34.7168L9.81445 34.5117L9.69727 34.2188L9.66797 33.9551V29.5605L9.72656 29.2383L9.90234 28.9453L10.1074 28.7695L10.4004 28.623L12.9199 27.6855L13.0664 27.627L13.2715 26.9238L13.5938 25.957L13.9453 25.1074L14.3262 24.2871L14.707 23.5547L14.8535 23.291L14.707 22.9102L14.209 21.8262L13.8281 20.9766L13.623 20.5078L13.5938 20.3906V19.9805L13.7109 19.7168L13.8867 19.4824L17.0801 16.2891L17.4316 16.1133L17.5488 16.084H17.7539L18.1348 16.2012L18.9551 16.582L19.9219 17.0215L20.7129 17.373L20.8594 17.3438L21.3281 17.0801L22.002 16.7285L22.7637 16.377L23.5254 16.084L24.2285 15.8496L25.0488 15.6152L25.1367 15.5273L25.5176 14.5312L26.0742 13.0371L26.25 12.627L26.3672 12.4805H26.4258V12.4219L26.8359 12.2168H31.6699L31.9922 12.334L32.2266 12.5391L32.4316 12.8906L33.0469 14.5605L33.4277 15.5566V15.6152L33.9258 15.7324L34.6875 15.9668L35.625 16.3184L36.4746 16.6992L37.2363 17.0801L37.7344 17.373L37.9102 17.3438L38.7305 16.9629L40.4883 16.1719L40.752 16.084H41.2207L41.4551 15.8496L41.4844 15.791H41.543V15.7324H41.6016V15.6738H41.6602V15.6152H41.7188V15.5566H41.7773V15.498H41.8359V15.4395H41.8945V15.3809H41.9531V15.3223H42.0117V15.2637H42.0703V15.2051H42.1289V15.1465H42.1875V15.0879H42.2461L42.3047 14.9707H42.3633V14.9121H42.4219V14.8535L42.5391 14.7363L42.4512 14.0332L42.0117 11.0156L41.9531 10.6055V10.1953L42.0703 9.90234L42.334 9.60938L43.3594 8.58398L43.5059 8.4082L43.7109 8.23242L43.8574 8.05664L44.0625 7.88086L44.209 7.70508L44.4141 7.5293L44.5605 7.35352L44.7363 7.20703L44.9414 6.97266H45L45.0586 6.85547H45.1172L45.1758 6.73828H45.2344L45.293 6.62109L48.4277 3.48633L48.6914 3.31055L48.8672 3.25195ZM48.4277 6.24023L48.1934 6.44531L43.9453 10.6934V10.957L44.209 12.8906L44.2676 13.0078L44.502 12.8027L45.8789 11.4258V11.3672L45.9961 11.3086L46.1426 11.1328L48.75 8.52539L48.6914 7.96875L48.457 6.24023H48.4277ZM53.0566 7.14844L52.7637 7.23633L52.5 7.41211L52.002 7.91016V7.96875L51.8848 8.02734V8.08594L51.7676 8.14453V8.20312L51.6504 8.26172V8.32031L51.5332 8.37891V8.4375H51.4746L51.2695 8.67188L48.2812 11.6602V11.7188L48.1641 11.7773V11.8359L48.0469 11.8945V11.9531L47.9297 12.0117V12.0703L47.8125 12.1289V12.1875L47.6953 12.2461V12.3047L47.6074 12.334L47.4023 12.5684L43.623 16.3477V16.4062L43.5059 16.4648V16.5234L43.3887 16.582V16.6406L43.2715 16.6992L43.0664 16.9336L39.4922 20.5078V20.5664L39.375 20.625V20.6836H39.3164V20.7422H39.2578V20.8008H39.1992V20.8594H39.1406V20.918H39.082V20.9766H39.0234V21.0352H38.9648V21.0938H38.9062L38.7012 21.3281L35.127 24.9023V24.9609L35.0098 25.0195V25.0781L34.8926 25.1367V25.1953L34.7754 25.2539V25.3125H34.7168L34.5117 25.5469L31.2891 28.7695V28.8281L31.1719 28.8867V28.9453L31.0547 29.0039V29.0625L30.9375 29.1211V29.1797L30.8496 29.209L30.6445 29.4434L28.9453 31.1426L28.7988 31.4355L28.7695 31.5234V31.875L28.8867 32.1094L29.0332 32.2266L29.3262 32.3145L29.6191 32.2559L29.8535 32.1387L30.1465 31.875L31.9922 30.0293V29.9707L32.1094 29.9121V29.8535H32.168V29.7949H32.2266V29.7363H32.2852V29.6777H32.3438V29.6191H32.4023V29.5605H32.4609V29.502H32.5195V29.4434H32.5781L32.7832 29.209L35.6836 26.3086V26.25L35.8008 26.1914L36.0059 25.957L40.0195 21.9434V21.8848L40.1367 21.8262V21.7676L40.2539 21.709V21.6504L40.3418 21.6211L40.4883 21.4453L45.1465 16.7871V16.7285L45.2637 16.6699V16.6113L45.3809 16.5527V16.4941L45.498 16.4355V16.377L45.6152 16.3184V16.2598L45.7324 16.2012L45.8789 16.0254L46.0547 15.8789L46.2598 15.6445L48.8672 13.0371V12.9785L48.9844 12.9199V12.8613H49.043V12.8027H49.1016V12.7441H49.1602V12.6855H49.2188V12.627H49.2773V12.5684H49.3359V12.5098H49.3945V12.4512H49.4531L49.6582 12.2168L52.0898 9.78516L52.2949 9.55078L53.4961 8.34961L53.6719 8.08594L53.7305 7.85156V7.64648L53.6426 7.41211L53.4961 7.26562L53.3496 7.17773L53.0566 7.14844ZM52.3535 12.1875L51.8262 12.7148V12.7734L51.709 12.832V12.8906L51.5918 12.9492V13.0078L51.4746 13.0664V13.125H51.416V13.1836H51.3574L51.1523 13.418L48.0469 16.5234L47.9004 16.6992L47.9297 16.7285L50.2441 17.0508L54.7266 12.5684L54.668 12.5098L52.4707 12.1875H52.3535ZM27.6855 14.1211L27.3926 14.9414L26.9531 16.1133L26.7188 16.7285L26.543 17.0215L26.3379 17.1973L25.8984 17.3438L24.9023 17.6074L23.9941 17.9297L23.291 18.2227L22.5586 18.5742L22.002 18.8672L21.3574 19.248L21.0059 19.3945H20.6543L20.2148 19.2188L17.959 18.1934L17.8125 18.2227V18.2812L17.6953 18.3398L17.5781 18.457V18.5156L17.4609 18.5742V18.6328L17.373 18.6621L17.1973 18.8672L16.2598 19.8047L16.084 19.9512L15.9375 20.0977V20.1562L15.8203 20.2148L15.791 20.3027H15.7324L15.7031 20.4785L16.1426 21.4453L16.6113 22.4707L16.8457 23.0273L16.9043 23.2617L16.875 23.5547L16.7578 23.8477L16.2305 24.7852L15.8789 25.459L15.5566 26.1914L15.2344 27.041L14.9707 27.9199L14.7949 28.5645L14.6777 28.8281L14.4727 29.0625L14.0625 29.2676L11.6309 30.1758L11.6016 30.2051V33.3398L11.9531 33.4863L12.832 33.8086L13.8574 34.1895L14.2969 34.3652L14.5605 34.541L14.6777 34.6875L14.7949 34.9805L15.0293 35.8887L15.3809 36.9434L15.7324 37.793L16.1426 38.6426L16.582 39.4336L16.7578 39.7266L16.875 40.0195V40.4004L16.7285 40.8105L16.2598 41.8359L15.7031 43.0664L15.6738 43.1836L17.8418 45.3516L18.0176 45.3223L20.0684 44.3848L20.5664 44.1797L20.7129 44.1504H20.9766L21.2988 44.2676L22.2363 44.7949L22.9102 45.1465L23.7012 45.498L24.5801 45.8203L25.459 46.084L26.1328 46.2598L26.4551 46.4355L26.6309 46.6699L26.7773 46.9629L27.3633 48.5449L27.6855 49.3945L27.7148 49.4238H30.8496L31.0547 48.8965L31.5234 47.6367L31.875 46.7285L32.0508 46.4648L32.2559 46.3184L32.7246 46.1719L33.6035 45.9375L34.541 45.6152L35.3027 45.293L36.2695 44.8242L36.9727 44.4141L37.4121 44.1797L37.5586 44.1504H37.8516L38.2324 44.2676L40.5469 45.3223L40.6934 45.3516L42.8027 43.2422L42.8613 43.2129L42.832 43.0078L42.2754 41.8066L41.8359 40.8398L41.6602 40.3711V40.0195L41.8066 39.668L42.1875 39.0234L42.4219 38.6133L42.7441 37.9395L43.0957 37.1191L43.4473 36.0938L43.7402 34.9805L43.8574 34.7168L44.0039 34.5117L44.2969 34.3359L44.8828 34.1016L46.4648 33.5156L46.875 33.3691L46.9336 33.3105V30.2051L46.875 30.1465L46.377 29.9707L44.9707 29.4434L44.2383 29.1504L43.9746 28.9746L43.8574 28.8281L43.7402 28.5352L43.5059 27.6562L43.2715 26.9238L43.0078 26.1914L42.627 25.3418L42.334 24.7559L41.9238 24.0527L41.6602 23.5547L41.6309 23.3203L41.6895 23.0566L41.7188 22.8809L41.5137 23.0566L41.4844 23.1445H41.4258V23.2031L41.3086 23.2617L41.0156 23.5547V23.6133H40.957V23.6719H40.8984V23.7305H40.8398V23.7891H40.7812V23.8477H40.7227V23.9062H40.6641V23.9648H40.6055V24.0234H40.5469L40.3418 24.2578L39.5801 25.0195L39.6387 25.166L39.9609 25.7227L40.2832 26.3086L40.6348 27.0996L40.8691 27.7148L41.1035 28.4766L41.3086 29.3555L41.4258 30.0293L41.5137 30.8496L41.543 31.377V32.1094L41.4844 32.9297L41.3965 33.6621L41.2793 34.3066L41.1035 35.0391L40.8398 35.8887L40.4883 36.7676L40.1074 37.5586L39.7852 38.1152L39.4043 38.7012L39.1113 39.1113L38.8184 39.4922L38.4668 39.9023L38.0566 40.3418L37.5293 40.8691L37.207 41.1328L36.8262 41.4551L36.3867 41.7773L35.8594 42.1289L35.2148 42.5098L34.541 42.8613L33.8672 43.1543L33.1348 43.418L32.4609 43.623L31.6992 43.7988L30.7617 43.9453L30.2051 44.0039L29.707 44.0332H28.7109L27.8613 43.9746L26.8945 43.8281L25.8984 43.5938L24.8438 43.2422L24.082 42.9199L23.3203 42.5391L22.8223 42.2461L22.1191 41.7773L21.6211 41.3965L21.2988 41.1328L20.918 40.7812L20.8008 40.7227V40.6641L20.5664 40.459L20.0977 39.9609L19.7461 39.5508L19.3652 39.0527L19.0137 38.5547L18.6328 37.9395L18.2812 37.2949L17.959 36.5918L17.6367 35.7422L17.373 34.8633L17.1973 34.043L17.0801 33.2812L17.0215 32.666L16.9922 32.1387V31.4941L17.0508 30.5273L17.168 29.707L17.3438 28.8574L17.5195 28.2129L17.7832 27.4219L18.1348 26.6016L18.4863 25.8984L18.9258 25.166L19.3066 24.6094L19.6875 24.1113L19.9512 23.7891L20.2148 23.4961V23.4375H20.2734L20.4785 23.2031L20.8594 22.8223L20.918 22.793V22.7344L21.0352 22.6758L21.3574 22.3828L21.7676 22.0605L22.2363 21.709L22.8223 21.3281L23.4375 20.9766L23.877 20.7422L24.668 20.3906L25.4004 20.127L26.0742 19.9219L27.0117 19.7168L27.7734 19.5996L28.3887 19.541L28.916 19.5117H29.5605L30.4688 19.5703L31.3477 19.6875L32.1973 19.8633L33.0469 20.0977L33.8379 20.3906L34.5703 20.7129L35.1562 21.0059L35.8008 21.3867L35.8301 21.416H35.9766L36.1816 21.1816L37.8809 19.4824V19.4238L37.5 19.3945L37.2363 19.2773L36.5332 18.8672L35.8301 18.4863L34.9219 18.0762L34.1602 17.7832L33.2227 17.4902L32.4316 17.2852L32.1973 17.168L32.0215 17.0215L31.8457 16.7285L31.6113 16.1426L31.0254 14.5605L30.8789 14.1504L30.8496 14.1211H27.6855ZM28.7695 21.3867L27.8613 21.4746L27.041 21.6211L26.1621 21.8555L25.5762 22.0605L24.9609 22.3242L24.3457 22.6172L23.8477 22.9102L23.3203 23.2617L22.8516 23.6133L22.5293 23.877L22.0898 24.2871L21.4746 24.9023L20.8301 25.7227L20.4785 26.25L20.1855 26.748L19.8047 27.4805L19.4824 28.3008L19.2188 29.1504L19.0723 29.7949L18.9844 30.2637L18.8965 31.2012V32.4609L18.9844 33.3105L19.1602 34.2188L19.3945 35.0391L19.6875 35.8301L20.0977 36.6797L20.3906 37.207L20.6836 37.6465L20.9766 38.0566L21.3574 38.5254L21.6797 38.877L22.0312 39.2578L22.3242 39.5215L22.6465 39.8145L23.2324 40.2539L23.8477 40.6641L24.3164 40.9277L24.873 41.2207L25.4297 41.4551L26.1621 41.7188L26.9238 41.9238L27.7148 42.0703L28.4766 42.1582L29.4434 42.1875L30.0879 42.1582L30.8496 42.0703L31.6113 41.9238L32.2852 41.748L33.0469 41.4844L33.8379 41.1328L34.5117 40.7812L35.0684 40.4297L35.4785 40.1367L35.8594 39.8438L36.2988 39.4629L36.5039 39.2578L36.6211 39.1699V39.1113L36.7383 39.0527V38.9941L36.8262 38.9648L37.0312 38.7305L37.2656 38.4668L37.5879 38.0566L37.9102 37.6172L38.291 37.002L38.5547 36.5332L38.877 35.8301L39.1406 35.0977L39.3457 34.4238L39.4922 33.7793L39.6094 33.0469L39.668 32.4609V31.1426L39.6094 30.498L39.4922 29.7656L39.3164 29.0039L38.9648 27.9492L38.6426 27.2168L38.2617 26.4844L38.1152 26.5137L37.9688 26.6602V26.7188L37.8516 26.7773V26.8359L37.7637 26.8652L37.5586 27.0996L36.3574 28.3008L36.3867 28.4766L36.6797 29.209L36.8848 29.9121L37.0312 30.6445L37.0898 31.084L37.1191 31.6113V31.9629L37.0898 32.5195L36.9727 33.3105L36.8262 33.9258L36.5918 34.6289L36.3574 35.1562L36.123 35.625L35.8887 36.0059L35.6543 36.3574L35.3613 36.7383L35.0098 37.1484L34.541 37.6172L34.2188 37.8809L33.8379 38.1738L33.3398 38.4961L32.6953 38.8477L32.0801 39.1113L31.5527 39.2871L30.8203 39.4629L30.3223 39.5508L29.707 39.6094H28.8281L28.0078 39.5215L27.2168 39.3457L26.3379 39.0527L25.6348 38.7305L25.0781 38.4082L24.5801 38.0566L24.2871 37.8223L23.9941 37.5586L23.6426 37.2363L23.584 37.1484H23.5254L23.4668 37.0312L23.1738 36.709L22.8223 36.2402L22.4414 35.625L22.207 35.1562L21.9434 34.5703L21.6797 33.7207L21.5332 32.959L21.4746 32.4902L21.4453 32.0508V31.6113L21.5039 30.8203L21.6211 30.1172L21.8262 29.3555L22.0605 28.7402L22.2949 28.2129L22.6465 27.5977L22.9395 27.1875L23.2324 26.8066L23.3789 26.6309V26.5723H23.4375L23.6426 26.3379L24.0234 25.957L24.3457 25.6934L24.7266 25.4004L25.166 25.1074L25.8105 24.7559L26.3965 24.4922L27.0996 24.2578L27.8613 24.082L28.5059 23.9941L28.8867 23.9648H29.6777L30.498 24.0527L31.2305 24.1992L31.9922 24.4336L32.6074 24.6973L32.7246 24.668L32.8711 24.5215L32.9883 24.375L33.1934 24.1992L33.3398 24.0527V23.9941L33.457 23.9355V23.877L33.5449 23.8477L33.6914 23.6719L33.8672 23.5254L34.0723 23.291L34.541 22.8223L34.4238 22.7344L34.0137 22.5L33.3105 22.1777L32.6074 21.9141L31.9043 21.709L31.1133 21.5332L30.1758 21.416L29.707 21.3867H28.7695ZM28.9746 25.8398L28.3301 25.8984L27.6855 26.0449L27.0703 26.25L26.3379 26.6016L25.8398 26.9238L25.4297 27.2461L25.0781 27.5684L24.8145 27.832L24.5508 28.1543L24.1992 28.6523L23.9062 29.1797L23.6719 29.7363L23.4668 30.4102L23.3496 31.1133L23.3203 31.377V32.168L23.4082 32.8711L23.584 33.5742L23.7891 34.1309L24.0234 34.6289L24.3457 35.1562L24.668 35.5664L24.9316 35.8594L25.0195 35.9766H25.0781L25.1074 36.0645L25.3418 36.2695L25.8105 36.6504L26.543 37.0898L27.1289 37.3535L27.6562 37.5293L28.1543 37.6465L28.5645 37.7051L28.9746 37.7344H29.6484L30.1758 37.6758L30.7617 37.5586L31.2598 37.4121L31.875 37.1484L32.3145 36.9141L32.7539 36.6211L33.1641 36.2988L33.3398 36.1523V36.0938L33.457 36.0352L33.8086 35.6543V35.5957H33.8672L34.248 35.0684L34.5117 34.6289L34.8047 34.0137L35.0098 33.3984L35.1562 32.7539L35.2148 32.2852V31.3184L35.1562 30.8203L35.0098 30.1465L34.8926 29.7949H34.834V29.8535L34.7461 29.8828L34.541 30.1172L33.3105 31.3477V31.4062L33.1934 31.4648V31.5234L33.0762 31.582V31.6406H33.0176V31.6992H32.959L32.7539 31.9336L31.2012 33.4863L30.791 33.7793L30.2344 34.043L29.7656 34.1602H29.0039L28.5352 34.043L28.2422 33.9258L27.9199 33.75L27.5391 33.4277L27.2754 33.1055L27.041 32.6367L26.9238 32.2559L26.8652 31.7871V31.5234L26.9824 30.9082L27.1875 30.4395L27.3926 30.0879L27.6562 29.7949L27.8613 29.5605L29.5898 27.832V27.7734L29.707 27.7148L29.8828 27.5098L31.2012 26.1914L31.1426 26.1328L30.5273 25.957L29.9414 25.8691L29.5605 25.8398H28.9746Z" fill="#00B4DD"/>
<path d="M31.8164 3.31055H32.2266L32.4902 3.42773L32.7539 3.60352L33.1348 3.89648L34.3652 4.83398L34.9512 5.27344L35.332 5.56641L35.918 6.00586L36.4453 6.41602L36.9141 6.76758L37.207 7.03125L37.3242 7.17773L37.4121 7.44141V7.82227L37.2949 8.11523L37.1191 8.34961L36.9141 8.49609L36.2109 8.73047L32.959 9.69727L31.377 10.166L31.2305 10.1953H30.9668L30.6445 10.0781L30.4102 9.90234L30.2344 9.60938L30.1758 9.46289V9.02344L30.3516 8.67188L30.5566 8.4668L30.8496 8.32031L31.9336 7.99805L32.4609 7.82227L32.168 7.76367L31.1133 7.64648L30.2344 7.58789H27.8613L26.6895 7.67578L25.7227 7.79297L24.668 7.96875L23.5547 8.20312L22.5586 8.4668L21.709 8.73047L21.0059 8.96484L20.0977 9.31641L19.2773 9.66797L18.75 9.90234L18.2812 10.1367L17.6074 10.4883L16.9043 10.8984L16.2598 11.2793L15.4395 11.8359L14.8535 12.2461L14.3262 12.6562L13.8574 13.0371L13.5352 13.3008L13.2129 13.5938L12.9785 13.7988L12.6855 14.0625L12.4512 14.2969L12.2461 14.4727L12.0996 14.6484H12.041V14.707H11.9824L11.9238 14.8242L11.5137 15.2344L11.3086 15.4688L11.0449 15.7617L10.7812 16.084L10.459 16.4648L10.1367 16.875L9.87305 17.2266L9.55078 17.666L9.28711 18.0469L8.99414 18.4863L8.61328 19.1016L8.20312 19.8047L7.79297 20.5664L7.41211 21.3281L6.97266 22.3242L6.5918 23.3203L6.24023 24.3457L5.88867 25.5762L5.625 26.7188L5.41992 27.832L5.27344 28.9746L5.18555 29.9414L5.12695 31.1426L5.03906 31.4648L4.83398 31.7285L4.59961 31.9043L4.27734 31.9922L3.89648 31.9629L3.60352 31.8164L3.39844 31.6113L3.25195 31.3184L3.22266 31.1719V30.5859L3.28125 29.5312L3.39844 28.3594L3.60352 26.9824L3.86719 25.6934L4.13086 24.668L4.36523 23.8477L4.77539 22.6465L5.09766 21.7969L5.56641 20.7129L6.06445 19.6875L6.50391 18.8672L6.97266 18.0762L7.41211 17.373L7.70508 16.9336L8.11523 16.3477L8.4668 15.8789L8.75977 15.498L9.14062 15.0293L9.66797 14.3848H9.72656L9.78516 14.2676L10.2246 13.7988L10.5469 13.4473L11.3672 12.627L11.6016 12.4219L11.9531 12.0996L12.3633 11.748L12.7441 11.4258L13.125 11.1328L13.5645 10.7812L13.9746 10.4883L14.5605 10.0781L14.9121 9.84375L15.4688 9.49219L16.0547 9.14062L16.7871 8.73047L17.5781 8.32031L18.0469 8.08594L18.6914 7.79297L19.541 7.44141L20.3906 7.11914L21.4453 6.76758L22.4707 6.47461L23.4082 6.24023L24.5801 6.00586L25.7227 5.83008L26.748 5.71289L27.5391 5.6543L28.1836 5.625H30.0293L31.0547 5.68359L32.4609 5.80078L31.9922 5.44922L31.5527 5.09766L31.3184 4.89258L31.1426 4.6582L31.0547 4.39453V4.13086L31.1719 3.80859L31.3477 3.57422L31.582 3.39844L31.8164 3.31055Z" fill="#00B4DD"/>
<path d="M4.54102 36.123H4.95117L5.21484 36.2402L5.44922 36.416L5.6543 36.6211L5.88867 36.8262L6.24023 37.1777L6.47461 37.3828L6.73828 37.6465L6.97266 37.8516L7.26562 38.1445L7.5 38.3496L7.79297 38.6426L7.85156 38.6719V38.7305L7.96875 38.7891L8.37891 39.1992L8.4375 39.2285V39.2871L8.55469 39.3457L8.93555 39.7266L9.16992 39.9316L9.55078 40.3125L9.69727 40.5762L9.75586 40.752V41.0449L9.66797 41.3086L9.49219 41.5723L9.25781 41.748L9.02344 41.8359L8.67188 41.8652L8.37891 41.7773L8.05664 41.543L7.44141 40.9277L7.20703 40.7227L6.85547 40.3711L6.94336 40.6348L7.26562 41.3965L7.73438 42.3633L8.02734 42.9492L8.32031 43.4766L8.67188 44.0625L9.02344 44.6191L9.49219 45.3223L10.1953 46.2598L10.5762 46.7285L10.8398 47.0508L11.1328 47.373L11.3379 47.6074L11.6016 47.9004L11.7773 48.1055L12.4805 48.8086L12.7148 49.0137L13.1543 49.4238L13.5645 49.7754L13.8867 50.0391L14.3555 50.4199L14.9121 50.8301L15.4395 51.2109L16.0547 51.6211L16.8164 52.0898L17.4316 52.4414L18.1348 52.8223L18.8965 53.2031L19.834 53.6133L20.8008 53.9941L21.9141 54.375L22.7344 54.6094L23.6133 54.8438L24.7559 55.0781L25.8398 55.2539L26.8359 55.3711L28.125 55.459H30.1172L31.3477 55.3711L32.373 55.2539L33.457 55.0781L34.6875 54.8145L35.8887 54.4922L37.1484 54.082L38.291 53.6426L39.3457 53.1738L39.9023 52.9102L40.5469 52.5586L41.0449 52.2949L41.3672 52.207H41.5723L41.8652 52.2949L42.1289 52.4707L42.3047 52.7051L42.4219 53.0273V53.3496L42.3047 53.6426L42.041 53.9355L41.543 54.2285L40.3418 54.8438L39.375 55.2832L38.4375 55.6641L37.4414 56.0156L36.4453 56.3379L35.2441 56.6602L34.043 56.9238L32.8418 57.1289L31.6406 57.2754L30.5566 57.3633L29.9707 57.3926H28.1543L27.1582 57.334L25.9863 57.2168L24.9609 57.0703L23.8477 56.8652L22.5879 56.5723L21.4746 56.25L20.4199 55.8984L19.7168 55.6348L18.9258 55.3125L18.0762 54.9316L16.8457 54.3164L16.3184 54.0234L15.5273 53.5547L14.8828 53.1445L14.2383 52.7051L13.7109 52.3242L13.2129 51.9434L12.8027 51.6211L12.3926 51.2695L12.0703 51.0059L11.6895 50.6543L11.4551 50.4492L11.1914 50.1855L11.1328 50.1562V50.0977H11.0742V50.0391L10.957 49.9805V49.9219L10.8398 49.8633V49.8047L10.7227 49.7461L10.4883 49.5117V49.4531H10.4297L10.2246 49.2188L9.99023 48.9844L9.78516 48.75L9.52148 48.457L9.25781 48.1348L8.93555 47.7539L8.61328 47.3438L8.14453 46.7285L7.82227 46.2598L7.23633 45.3809L6.76758 44.6191L6.35742 43.8867L5.91797 43.0371L5.47852 42.1289L5.18555 41.4258L5.12695 41.6895L4.98047 42.7734L4.86328 43.0957L4.6582 43.3594L4.30664 43.5352L4.18945 43.5645H3.86719L3.54492 43.4473L3.31055 43.2422L3.13477 42.9785L3.07617 42.8027V42.4219L3.45703 39.4629L3.7793 36.9141L3.89648 36.5918L4.01367 36.416L4.24805 36.2402L4.54102 36.123Z" fill="#00B4DD"/>
<path d="M52.5586 22.1484L52.9102 22.207L53.1738 22.3535L53.3789 22.5879L53.4961 22.8223L53.8477 23.877L54.1406 24.9023L54.375 25.8398L54.6094 27.0117L54.7852 28.1543L54.9023 29.209L54.9609 29.9707L54.9902 30.6445V32.4316L54.9316 33.5449L54.8145 34.7168L54.668 35.7129L54.4629 36.8262L54.2285 37.8516L53.9355 38.9062L53.4961 40.2539L53.1445 41.1621L52.7637 42.0703L52.3242 43.0078L52.0312 43.5645L51.709 44.1504L51.5332 44.4727L51.0938 45.2051L50.8301 45.6152L50.3613 46.3184L50.0098 46.7871L49.7168 47.1973L49.6289 47.3145L50.1562 47.0801L50.8594 46.7871L51.0645 46.7285H51.4453L51.7383 46.8457L52.0312 47.1094L52.1777 47.4316L52.207 47.5488V47.7832L52.1191 48.0762L51.9434 48.3398L51.6504 48.5449L50.8301 48.8965L46.4941 50.7129L46.1426 50.8008L45.8496 50.7715L45.5859 50.6543L45.3516 50.4492L45.1758 50.1562L45.1465 50.0391V49.6582L45.5566 47.9297L46.4355 44.2676L46.5527 43.9453L46.7578 43.6816L46.9922 43.5352L47.1973 43.4766H47.6074L47.9004 43.5938L48.1641 43.8281L48.3398 44.1797V44.6484L47.959 46.3184L48.1055 46.1719L48.5156 45.6152L48.8086 45.2051L49.043 44.8535L49.3652 44.3555L49.5996 43.9746L50.0391 43.2129L50.3027 42.7441L50.5371 42.2754L50.918 41.4844L51.3281 40.5176L51.6504 39.668L52.002 38.6133L52.3242 37.4707L52.5879 36.3281L52.793 35.1855L52.9395 34.0137L53.0273 32.959L53.0566 32.2852V30.7324L52.998 29.6484L52.8809 28.5059L52.7051 27.334L52.5 26.3086L52.1777 25.0195L51.8555 23.9648L51.6504 23.3496L51.6211 23.2031V22.998L51.709 22.7051L51.8848 22.4414L52.1191 22.2656L52.3242 22.1777L52.5586 22.1484Z" fill="#00B4DD"/>
</svg>
