<svg width="60" height="60" viewBox="0 0 60 60" fill="none" xmlns="http://www.w3.org/2000/svg">
<path d="M31.4648 17.7832H32.2266L33.1934 17.8418L34.1309 17.959L35.0391 18.1348L35.918 18.3691L36.7969 18.6621L37.6465 19.0137L38.2617 19.3066L38.9062 19.6582L39.4629 20.0098L39.9023 20.3027L40.459 20.7129L40.9277 21.0938L41.3379 21.4453L41.543 21.6504L41.7773 21.8555L41.9824 22.0605L42.1875 22.2949L42.5684 22.7051L42.832 23.0273L43.2422 23.5547L43.5645 24.0234L43.9746 24.668L44.2383 25.1367L44.5898 25.8105L44.9414 26.6016L45.2344 27.3926L45.5273 28.3887L45.7031 29.1797L45.8496 30.1172L45.9375 31.0547V32.6953L45.8789 33.3984L45.7617 34.2188L45.6152 34.9512L45.4102 35.7715L45.0586 36.8262L44.707 37.6758L44.4727 38.1445L44.209 38.6426L44.0332 38.9648L43.7988 39.3457L43.4473 39.873L43.1543 40.2832L42.832 40.6934L42.5684 41.0156L42.5098 41.1328L44.9707 43.5938L45.1172 43.5645L45.5566 43.3594L46.0254 43.2129L46.5234 43.125H47.373L47.9004 43.2129L48.3398 43.3594L48.8379 43.5938L49.1895 43.8281L49.5703 44.1504L49.8633 44.4141L50.1855 44.6777L51.0645 45.4395L51.3867 45.7031L51.6797 45.9668L52.002 46.2305L52.4414 46.6113L52.8223 46.9336L53.2617 47.3145L53.584 47.5781L54.0234 47.959L54.4336 48.3105L54.7559 48.5742L55.0195 48.8086L55.3418 49.0723L55.6348 49.3359L55.957 49.5996L56.25 49.8633L56.5723 50.127L56.9238 50.4492L57.2461 50.7715L57.5391 51.1816L57.7734 51.5918L57.9492 52.0312L58.0664 52.4707L58.125 52.8516V53.584L58.0664 53.9941L57.8906 54.6094L57.6562 55.1074L57.3926 55.5176L57.1875 55.7812H57.1289L57.0703 55.8984L55.7812 57.1875L55.4004 57.4805L54.9316 57.7441L54.6094 57.8906L54.1113 58.0371L53.6426 58.125L53.0566 58.1543L52.5586 58.0957L52.0605 57.9785L51.6211 57.8027L51.123 57.5391L50.7422 57.2461L50.4785 57.0117V56.9531H50.4199L50.2148 56.7188L49.8926 56.3379L49.541 55.9277L49.2773 55.6055L49.0137 55.3125L48.75 54.9902L48.3691 54.5508L48.0176 54.1406L47.7539 53.8184L47.4902 53.5254L47.2266 53.2031L46.9629 52.9102L46.6992 52.5879L45.9961 51.7676L45.7324 51.4453L45.4688 51.1523L45.2051 50.8301L44.9414 50.5371L44.6777 50.2148L43.9746 49.3945L43.623 48.8965L43.3887 48.4277L43.2129 47.9004L43.125 47.4316L43.0957 47.0215L43.125 46.5234L43.2422 45.9082L43.4473 45.3516L43.5938 45.0586L43.5645 44.8828L43.4473 44.8242L42.8613 44.2383V44.1797L42.7734 44.1504L42.627 43.9746L42.3926 43.7695V43.7109L42.2754 43.6523V43.5938L42.1582 43.5352V43.4766L42.041 43.418V43.3594L41.9531 43.3301L41.8066 43.1543L41.6309 43.0078L41.4551 42.8027L41.3965 42.7734V42.7148H41.3379V42.6562H41.2793V42.5977H41.2207L41.1914 42.5391L41.0742 42.5098L40.7812 42.7734L40.2832 43.1543L39.7852 43.5059L39.3457 43.7988L38.6426 44.209L37.9688 44.5605L37.4707 44.7949L36.6504 45.1172L35.9473 45.3516L35.0684 45.5859L34.0137 45.791L32.9883 45.9082L32.5488 45.9375H31.1133L30.3223 45.8789L29.3555 45.7324L28.6523 45.5859L27.8906 45.3809L26.8359 45.0293L26.0156 44.6777L25.4004 44.3848L24.7266 44.0039L24.1992 43.6816L23.5254 43.2129L23.1152 42.8906L22.7344 42.5684L22.5 42.3633L22.207 42.0996L21.416 41.3086L21.1523 40.9863L20.8008 40.5762L20.4492 40.1074L20.127 39.6387L19.7754 39.082L19.3945 38.4082L19.0723 37.7637L18.75 37.002L18.4863 36.2695L18.252 35.5078L18.0762 34.7461L17.9004 33.6914L17.8125 32.8125L17.7832 32.2266V31.5234L17.8418 30.5273L17.959 29.6191L18.1348 28.7109L18.3691 27.832L18.7207 26.8066L19.043 26.0449L19.2773 25.5469L19.6289 24.9023L19.9512 24.375L20.3613 23.7598L20.6836 23.3203L21.0645 22.8516L21.2695 22.5879H21.3281L21.3867 22.4707L21.6504 22.207L21.8555 21.9727L22.207 21.6211H22.2656V21.5625L22.5 21.3574L22.8223 21.0645L23.584 20.4785L24.1699 20.0684L24.7852 19.6875L25.4883 19.3066L26.2207 18.9551L26.9531 18.6621L27.9199 18.3398L28.7109 18.1348L29.5898 17.959L30.5273 17.8418L31.4648 17.7832ZM31.6113 19.6875L30.9375 19.7168L30.1172 19.8047L29.3262 19.9512L28.5938 20.127L27.5391 20.4785L26.8359 20.7715L26.3672 21.0059L25.8691 21.2695L25.2832 21.6211L24.8145 21.9434L24.3164 22.3242L23.9355 22.6465L23.7012 22.8516L23.3203 23.2031L23.0273 23.4961V23.5547H22.9688L22.7637 23.7891L22.4121 24.1992L22.0312 24.6973L21.7676 25.0781L21.416 25.6348L21.0352 26.3086L20.7422 26.9238L20.4199 27.7148L20.1562 28.5352L19.9219 29.4727L19.8047 30.1465L19.7168 31.084L19.6875 31.582V32.1973L19.7461 33.0176L19.834 33.75L19.9805 34.541L20.2148 35.4199L20.5078 36.2695L20.8008 36.9434L21.123 37.6172L21.5332 38.3203L21.8262 38.7598L22.1484 39.1992L22.4414 39.5801L22.7051 39.873L22.9102 40.1074L23.0273 40.2539H23.0859L23.1445 40.3711L23.4375 40.6641L23.6719 40.8691L24.0234 41.1914L24.4336 41.5137L24.9902 41.9238L25.4883 42.2461L26.1035 42.5977L26.543 42.832L27.2754 43.1543L27.7148 43.3301L28.4473 43.5645L29.3848 43.7988L30.0586 43.916L30.8496 44.0039L31.2012 44.0332H32.5488L33.457 43.9453L34.3359 43.7988L35.2734 43.5645L36.1523 43.2715L37.0605 42.8906L37.8516 42.4805L38.5254 42.0703L39.1113 41.6602L39.4922 41.3672L39.9023 41.0156L40.2539 40.6934L40.957 39.9902L41.2207 39.668L41.5137 39.3164L41.9238 38.7598L42.334 38.1152L42.627 37.5879L42.9785 36.8848L43.3008 36.0938L43.5645 35.3027L43.7988 34.3652L43.9453 33.4863L44.0332 32.5488V31.1719L43.9453 30.2637L43.7988 29.3848L43.5645 28.4473L43.2422 27.4805L42.832 26.543L42.4805 25.8691L42.0117 25.1074L41.6309 24.5801L41.3379 24.1992L41.0742 23.9062L40.8691 23.6719L40.6055 23.3789L40.1953 22.9688L39.9609 22.7637L39.668 22.5L39.1699 22.1191L38.6426 21.7383L38.0273 21.3574L37.3828 21.0059L36.709 20.6836L35.8887 20.3613L35.127 20.127L34.1602 19.8926L33.3691 19.7754L32.666 19.7168L31.9922 19.6875H31.6113ZM46.8457 45L46.4355 45.0586L46.0547 45.2051L45.791 45.3809L45.498 45.6445L45.3223 45.8789L45.1465 46.2305L45.0293 46.6992V47.1973L45.1172 47.5781L45.3516 48.0469L45.7031 48.457L45.9668 48.7793L46.2598 49.1016L46.5234 49.4238L47.9297 51.0645L48.1934 51.3867L48.457 51.6797L48.7207 52.002L49.1016 52.4414L49.8047 53.2617L50.0684 53.584L50.332 53.877L50.5957 54.1992L50.9766 54.6387L51.6797 55.459L51.8848 55.6934L52.1777 55.9277L52.5293 56.1035L52.9688 56.2207H53.4668L53.9355 56.1035L54.4043 55.8398L54.668 55.6055V55.5469L54.7852 55.4883L55.7227 54.5508L56.0156 54.1406L56.1328 53.877L56.2207 53.5254V52.9395L56.1035 52.5L55.9277 52.1484L55.6641 51.8262L55.3711 51.5625L55.0488 51.2988L54.1699 50.5371L53.8477 50.2734L53.4082 49.8926L52.998 49.541L52.6758 49.2773L52.3828 49.0137L52.0605 48.75L51.6211 48.3691L51.2109 48.0176L50.8301 47.6953L50.5078 47.4316L50.2148 47.168L49.8926 46.9043L49.5996 46.6406L49.2773 46.377L48.8379 45.9961L48.457 45.6738L48.0469 45.3516L47.7539 45.1758L47.2852 45.0293L46.8457 45Z" fill="#00B4DD"/>
<path d="M5.24414 35.0977H15.7031L15.9961 35.2148L16.2305 35.3906L16.4062 35.6543L16.4941 36.0059L16.4355 36.3574L16.2598 36.6504L15.9961 36.8848L15.7324 36.9727L15.4688 37.002L5.36133 37.0312L5.00977 37.1191L4.59961 37.3242L4.36523 37.5H4.30664L4.45312 37.6465L4.80469 37.9688L5.03906 38.1738L5.33203 38.4375L5.56641 38.6426L5.85938 38.9062L6.09375 39.1113L6.38672 39.375L6.62109 39.5801L6.91406 39.8438L7.23633 40.1074L7.67578 40.5176L7.99805 40.7812L8.20312 40.9863L8.4375 41.1914L8.73047 41.4551L9.05273 41.7188L9.49219 42.1289L9.72656 42.334L10.1367 42.6855L10.5469 43.0664L10.7812 43.2715L11.1914 43.623L11.543 43.9453L11.7773 44.1504L12.0703 44.4141L12.3047 44.6191L12.5977 44.8828L12.832 45.0879L13.125 45.3516L13.3594 45.5566L13.6523 45.8203L13.9746 46.084L14.4434 46.5234L14.7656 46.7871L15.1758 47.168L15.4102 47.373L15.7031 47.6367L16.084 47.9297L16.582 48.1641L16.9922 48.252L17.4902 48.2812L17.959 48.1934L18.3691 48.0469L18.8379 47.7539L19.1895 47.4316L19.4238 47.2266L19.5117 47.1973V47.1387L19.834 46.875L20.2441 46.4941L20.5664 46.2305L20.9473 45.8789L21.1816 45.6738L21.4746 45.4102L21.8555 45.0879L22.207 44.9121H22.6758L22.9395 45.0293L23.2031 45.2637L23.3496 45.5273L23.4082 45.7617L23.3789 46.084L23.2031 46.4355L23.0273 46.6406L22.793 46.8457L22.3828 47.1973L22.0898 47.4609L21.8555 47.666L21.5625 47.9297L21.3574 48.1055H21.2988V48.1641L21.0645 48.3691L20.7715 48.6328L20.4492 48.8965L20.0977 49.2188L19.6875 49.5117L19.2188 49.7754L18.8086 49.9512L18.1934 50.127L17.4902 50.2148H17.1387L16.4648 50.127L15.8496 49.9512L15.4102 49.7461L15.0879 49.5703L14.6777 49.2773L14.3848 49.0137L14.1504 48.8086L13.8574 48.5449L13.5352 48.2812L13.0664 47.8418L12.832 47.6367L12.5391 47.373L12.2168 47.1094L12.0117 46.9043L11.6895 46.6406L11.2793 46.2598L11.0449 46.0547L10.7227 45.7617L10.4004 45.498L9.96094 45.0879L9.72656 44.8828L9.28711 44.502L8.90625 44.1504L8.67188 43.9453L8.26172 43.5938L7.88086 43.2422L7.64648 43.0371L7.23633 42.6855L6.82617 42.3047L6.50391 42.041L6.06445 41.6309L5.83008 41.4258L5.53711 41.1621L5.30273 40.957L4.89258 40.6055L4.48242 40.2246L4.16016 39.9609L3.80859 39.6387L3.75 39.6094L3.7793 39.668V54.4043L3.83789 54.8438L3.98438 55.2246L4.18945 55.5176L4.42383 55.7812L4.74609 55.9863L5.06836 56.1328L5.36133 56.1914H29.2969L29.7656 56.0742L30.0879 55.8984L30.4102 55.6348L30.6445 55.3125L30.791 54.9902L30.8789 54.6094L30.9082 48.6621L31.0254 48.2812L31.2305 48.0176L31.5234 47.8418L31.875 47.7832L32.1973 47.8418L32.4316 47.959L32.6367 48.1641L32.7832 48.457L32.8125 48.5449V54.7559L32.7246 55.2832L32.5488 55.8105L32.3145 56.2793L32.0801 56.6309L31.8457 56.9238L31.582 57.1875L31.2012 57.4805L30.791 57.7148L30.4102 57.8906L29.9121 58.0371L29.6191 58.0957L29.2969 58.125H5.33203L4.7168 58.0371L4.18945 57.8613L3.7207 57.627L3.36914 57.3926L2.98828 57.0703L2.66602 56.7188L2.46094 56.4258L2.22656 56.0156L2.05078 55.6055L1.93359 55.166L1.875 54.8145L1.8457 54.4336V38.7891L1.9043 38.1738L2.05078 37.6172L2.31445 37.0312L2.51953 36.709L2.72461 36.4453L3.04688 36.0938L3.42773 35.7715L3.80859 35.5371L4.30664 35.3027L4.83398 35.1562L5.24414 35.0977Z" fill="#00B4DD"/>
<path d="M36.5625 1.8457H55.2539L55.8691 1.9043L56.3086 2.02148L56.8652 2.31445L57.1582 2.54883L57.4219 2.7832L57.7441 3.22266L58.0078 3.7793L58.0957 4.13086L58.125 4.33594L58.1543 5.47852V11.0449L58.125 21.8848L58.0371 22.3242L57.8906 22.7344L57.7148 23.0566L57.4512 23.4082L57.0996 23.7598L56.6895 24.0234L56.3965 24.1699L55.9277 24.3164L55.5176 24.375H46.3184L46.0547 24.2871L45.8789 24.1699L45.6445 23.9062L45.5273 23.6133V23.2617L45.6445 22.9395L45.8496 22.7051L46.1426 22.5293L46.4941 22.4707L55.4883 22.4414L55.7812 22.3242L55.8984 22.2363H55.957L56.0156 22.1191L56.1328 21.9141L56.1914 21.709V4.48242L56.0742 4.18945L55.8984 3.98438L55.6348 3.83789L55.3125 3.7793H36.5332L36.2109 3.83789L35.9473 4.01367L35.7715 4.24805L35.6836 4.48242L35.6543 4.80469L35.625 15.4395L35.5078 15.7324L35.2441 16.0254L34.9805 16.1426L34.8633 16.1719H34.4824L34.2188 16.084L33.9258 15.8203L33.75 15.4688L33.7207 15.2344V4.57031L33.7793 4.10156L33.9258 3.63281L34.1602 3.16406L34.4824 2.75391L34.6875 2.54883L35.0391 2.28516L35.4785 2.05078L35.9766 1.9043L36.5625 1.8457Z" fill="#00B4DD"/>
<path d="M11.7773 1.8457H12.5098L13.3301 1.9043L14.2676 2.05078L15 2.22656L15.8789 2.51953L16.5527 2.8125L17.0215 3.04688L17.6953 3.42773L18.2812 3.83789L18.8086 4.24805L19.1602 4.57031L19.2188 4.59961V4.6582L19.3359 4.7168L19.7461 5.12695L19.9512 5.36133L20.2734 5.74219L20.625 6.21094L21.0059 6.79688L21.3574 7.41211L21.709 8.14453L22.002 8.93555L22.207 9.63867L22.3828 10.459L22.4707 11.1035L22.5 11.4844V12.8906L22.4414 13.4766L22.3242 14.209L22.1484 14.9707L21.8555 15.8496L21.5332 16.6113L21.1523 17.3438L20.8008 17.9004L20.4492 18.3984L20.0684 18.8672L19.7461 19.2188L19.541 19.4531L19.3066 19.6875L19.0723 19.8926L18.7793 20.1562L18.4277 20.4199L17.9004 20.8008L17.168 21.2402L16.7285 21.4746L16.1426 21.7383L15.3516 22.0312L14.5898 22.2363L13.8281 22.3828L13.1543 22.4707L12.7734 22.5H11.5723L10.6641 22.4121L9.90234 22.2656L9.22852 22.0898L8.52539 21.8555L7.85156 21.5625L7.38281 21.3281L6.88477 21.0645L6.18164 20.5957L5.80078 20.3027L5.47852 20.0391L5.12695 19.7168L4.89258 19.5117L4.77539 19.3945V19.3359H4.7168L4.51172 19.1016L4.27734 18.8379L3.95508 18.4277L3.63281 17.9883L3.28125 17.4316L2.92969 16.7871L2.66602 16.2305L2.40234 15.5273L2.16797 14.7656L1.99219 13.916L1.9043 13.3008L1.8457 12.5098V11.8652L1.9043 11.0449L2.05078 10.1074L2.25586 9.28711L2.49023 8.58398L2.75391 7.93945L2.98828 7.4707L3.22266 7.03125L3.45703 6.65039L3.69141 6.29883L3.92578 5.97656L4.24805 5.56641L4.51172 5.24414H4.57031L4.62891 5.12695L5.27344 4.48242L5.5957 4.21875L6.03516 3.86719L6.50391 3.54492L7.11914 3.16406L7.85156 2.7832L8.64258 2.46094L9.46289 2.19727L10.2246 2.02148L11.0449 1.9043L11.7773 1.8457ZM11.9531 3.75L11.1328 3.80859L10.4297 3.92578L9.75586 4.10156L9.22852 4.27734L8.61328 4.54102L7.88086 4.92188L7.44141 5.21484L6.97266 5.56641L6.65039 5.83008L6.21094 6.24023L6.00586 6.44531L5.80078 6.67969L5.41992 7.14844L5.00977 7.76367L4.6875 8.32031L4.36523 9.02344L4.16016 9.60938L3.98438 10.2246L3.83789 10.9863L3.75 11.9824V12.4805L3.83789 13.3887L3.98438 14.1504L4.16016 14.7656L4.39453 15.4102L4.7168 16.1133L5.09766 16.7578L5.44922 17.2559L5.71289 17.5781L6.24023 18.1641L6.38672 18.3105H6.44531V18.3691L6.76758 18.6328L7.14844 18.9551L7.58789 19.248L8.17383 19.5996L8.96484 19.9805L9.69727 20.2441L10.3418 20.4199L11.0449 20.5371L11.6309 20.5957H12.7734L13.5059 20.5078L14.2383 20.3613L15.0879 20.0977L15.7617 19.8047L16.2305 19.5703L16.7285 19.2773L17.1973 18.9551L17.4902 18.7207L17.8711 18.3984L18.5449 17.7246L18.8672 17.3145L19.2188 16.8457L19.6289 16.1426L19.9805 15.4102L20.2148 14.7656L20.3906 14.1211L20.5078 13.5352L20.5957 12.7441V11.6309L20.5078 10.8398L20.3613 10.1367L20.1562 9.43359L19.8633 8.70117L19.5117 7.99805L19.1602 7.44141L18.75 6.88477L18.4277 6.5332L18.2227 6.29883L17.9004 5.97656L17.666 5.77148L17.2266 5.41992L16.8457 5.15625L16.4648 4.92188L15.9375 4.62891L15.2051 4.30664L14.4141 4.04297L13.7695 3.89648L13.1836 3.80859L12.3633 3.75H11.9531Z" fill="#00B4DD"/>
<path d="M42.1582 7.4707L42.5098 7.5293L43.2422 7.88086L51.9141 12.2168L52.207 12.4219L52.3828 12.627L52.5 12.8906L52.5293 13.125L52.4707 13.418L52.3242 13.7109L52.0605 13.9453L42.6855 18.6328L42.334 18.75H41.9824L41.6895 18.6328L41.4258 18.3984L41.2793 18.1055L41.25 17.9883L41.2207 16.3477V10.7227L41.25 8.23242L41.3672 7.93945L41.6309 7.64648L41.9531 7.5L42.1582 7.4707ZM43.125 9.99023V16.2598L43.3008 16.2012L47.4609 14.1211L48.0176 13.8281L48.6328 13.5352L49.1309 13.2715L49.3652 13.1543L49.3945 13.0957L48.8965 12.832L48.3398 12.5684L47.7832 12.2754L43.2129 9.99023H43.125Z" fill="#00B4DD"/>
<path d="M14.2969 7.4707H14.6191L15.2637 7.55859L15.7031 7.70508L16.1719 7.93945L16.6406 8.29102L17.0215 8.67188L17.3145 9.08203L17.5488 9.55078L17.7246 10.0488L17.8125 10.5176V11.3672L17.6953 11.9531L17.5195 12.4219L17.3145 12.8027L17.0215 13.2129L16.6699 13.5938L16.4648 13.8281H16.4062L16.3477 13.9453L15.8203 14.4727L15.791 14.5312H15.7324L15.6738 14.6484L15.0293 15.293L14.9707 15.3809H14.9121L14.8535 15.498L14.2383 16.1133L14.0332 16.3477L13.5645 16.8164L13.5352 16.875H13.4766L13.418 16.9922L12.8027 17.6074L12.5684 17.7539L12.3633 17.8125H11.9824L11.6895 17.6953L11.3379 17.373L11.0156 17.0508V16.9922H10.957L10.752 16.7578L10.459 16.4648L10.2539 16.2305L9.66797 15.6445L9.46289 15.4102L8.90625 14.8535L8.70117 14.6191L8.08594 14.0039V13.9453H8.02734L7.82227 13.7109L7.55859 13.4473L7.35352 13.2129L7.03125 12.7734L6.76758 12.2168L6.62109 11.748L6.5625 11.4258L6.5332 11.1035V10.8105L6.5918 10.2832L6.70898 9.84375L6.85547 9.46289L7.08984 9.02344L7.38281 8.64258L7.61719 8.37891H7.67578V8.32031L8.17383 7.96875L8.64258 7.73438L9.11133 7.58789L9.43359 7.5293H10.4004L10.9277 7.64648L11.3672 7.82227L11.6895 7.99805L12.0996 8.29102V8.34961L12.2461 8.32031L12.6562 7.99805L13.2129 7.70508L13.7988 7.5293L14.2969 7.4707ZM9.63867 9.4043L9.31641 9.52148L9.08203 9.66797L8.90625 9.81445L8.70117 10.1074L8.55469 10.4004L8.4668 10.8691L8.49609 11.3086L8.61328 11.6309L8.78906 11.9238L9.14062 12.334L9.72656 12.9199L9.93164 13.1543L10.459 13.6816L10.4883 13.7402H10.5469L10.6055 13.8574L11.2207 14.4727L11.4258 14.707L11.8066 15.0879L11.8945 15.2051H11.9531L12.0117 15.3223H12.0703L12.1289 15.4395L12.2461 15.4688L12.5684 15.1465V15.0879L12.6562 15.0586L12.8613 14.8242L13.2422 14.4434V14.3848H13.3008V14.3262H13.3594L13.5645 14.0918L13.8867 13.7695L14.0918 13.5352L14.5898 13.0371V12.9785H14.6484L14.8535 12.7441L15.3809 12.2168V12.1582L15.4688 12.1289L15.7324 11.748L15.8496 11.5137L15.9375 11.1328V10.7812L15.8203 10.3125L15.6445 9.99023L15.4102 9.72656L15.0879 9.52148L14.8535 9.43359L14.7363 9.4043H14.1797L13.7988 9.55078L13.4766 9.78516V9.84375L13.3594 9.90234L13.1543 10.2539L13.0078 10.6055L12.8027 10.8691L12.5098 11.0156L12.334 11.0742H12.0703L11.7773 10.9863L11.5137 10.7812L11.3379 10.5176L11.1914 10.166L10.9863 9.87305L10.7812 9.66797L10.4883 9.49219L10.1953 9.4043H9.63867Z" fill="#00B4DD"/>
<path d="M34.6582 26.2207H38.4082L38.7891 26.2793L39.082 26.4551L39.2578 26.6602L39.375 26.8945L39.4043 27.041V31.0547L39.3457 31.2891L39.1699 31.582L38.9648 31.7578L38.7598 31.8457L38.6133 31.875H38.2617L37.998 31.7871L37.793 31.6406L37.5879 31.3477L37.5 31.1133V29.8242L37.3535 29.9414L37.3242 30H37.2656L37.207 30.1172L36.9434 30.4102L36.6797 30.7324L36.3281 31.1426L35.9473 31.582L35.6836 31.9043L35.4199 32.1973L35.1562 32.5195L34.8926 32.8125L34.6289 33.1348L34.3652 33.4277L34.1016 33.75L33.8379 34.043L33.5742 34.3652L33.3398 34.5703L33.1348 34.6582L32.9883 34.6875H32.6074L32.3438 34.5703L32.0801 34.3652L30.1172 32.4023H30.0293L30 32.4609H29.9414L29.8828 32.5781L29.6777 32.8418L29.3262 33.252L29.0918 33.5449L28.7402 33.9551L28.5059 34.248L28.1543 34.6582L27.9199 34.9512L27.5684 35.3613L27.334 35.6543L26.9824 36.0645L26.748 36.3574L26.3965 36.7676L26.1621 37.0605L25.8691 37.3535L25.6055 37.4707L25.4883 37.5H25.1074L24.8145 37.3828L24.5508 37.1484L24.4043 36.8555L24.375 36.7676V36.3574L24.4922 36.0645L24.6973 35.8008L25.0488 35.3906L25.2832 35.0977L25.6348 34.6875L25.8691 34.3945L26.2207 33.9844L26.4551 33.6914L26.8066 33.2812L27.041 32.9883L27.3926 32.5781L27.627 32.2852L27.9492 31.9043L28.2129 31.582L28.5645 31.1719L28.8281 30.8496L29.209 30.3809L29.4434 30.1465L29.6484 30.0293L29.9414 29.9707L30.2344 30L30.4688 30.0879L30.791 30.3516L32.7246 32.2852H32.8125L33.0762 31.9629L33.457 31.5234L33.7207 31.2305L33.9551 30.9375L34.3359 30.498L36.0938 28.4473L36.3281 28.1543L34.5117 28.125L34.1895 28.0078L33.9258 27.7734L33.75 27.4219V26.9531L33.8672 26.6895L33.9844 26.5137H34.043V26.4551L34.4531 26.25L34.6582 26.2207Z" fill="#00B4DD"/>
</svg>
