<svg width="60" height="60" viewBox="0 0 60 60" fill="none" xmlns="http://www.w3.org/2000/svg">
<path d="M29.6777 0.0878906H30.293L30.9961 0.146484L31.7871 0.292969L32.373 0.46875L32.9883 0.703125L33.7207 1.08398L34.0723 1.31836L34.4238 1.58203L34.7461 1.875L34.9805 2.08008L35.2734 2.40234L35.5078 2.69531L35.7715 2.98828L36.0938 3.22266L36.5332 3.45703L36.9434 3.57422L37.1777 3.60352H37.7051L39.1113 3.31055L39.4043 3.28125H40.459L41.1328 3.36914L41.8652 3.54492L42.5098 3.7793L43.1543 4.07227L43.6523 4.36523L44.1211 4.6875L44.5898 5.06836L44.9707 5.41992L45.293 5.74219L45.5566 6.06445L45.8789 6.50391L46.2012 7.03125L46.4355 7.5L46.6113 7.91016L46.7871 8.4375L46.9336 9.14062L46.9922 9.66797L47.0508 10.3125L47.168 10.752L47.3145 11.1035L47.5488 11.4551L47.7246 11.6602L48.0176 11.8945L48.4277 12.1289L49.3066 12.5098L49.8047 12.7734L50.1562 13.0078L50.5078 13.2715L50.9473 13.6523L51.2109 13.916L51.416 14.1504L51.7383 14.5605L52.0312 15L52.2949 15.4688L52.6172 16.1426L52.9102 17.0215L53.0566 17.666L53.1445 18.3398L53.1738 18.8086V19.1602L53.0859 20.0684L52.9102 20.8301L52.7051 21.4453L52.3828 22.1191L52.002 22.7344L51.7676 23.2031L51.6504 23.6426L51.6211 23.9062V24.2578L51.709 24.7559L51.8848 25.1953L52.5 26.2207L52.7637 26.8359L52.9688 27.4805L53.0859 28.0664L53.1445 28.5352L53.1738 29.0039V29.3555L53.1152 30L53.0273 30.5859L52.8516 31.3184L52.6465 31.9043L52.3828 32.5195L52.0312 33.1348L51.6211 33.7207L51.2988 34.1016L51.2109 34.2188H51.1523L51.0938 34.3359L50.6836 34.7168L50.2734 35.0391L49.834 35.332L49.2773 35.625L48.3691 36.0059L47.959 36.2695L47.6074 36.5918L47.4316 36.8555L47.4902 37.0312L47.9004 37.7637L48.3105 38.4668L48.7793 39.2871L49.1895 39.9902L49.6582 40.8105L50.0684 41.5137L50.5371 42.334L50.9473 43.0371L51.1816 43.4473L51.5918 44.1504L52.0605 44.9707L52.5 45.7324L52.8223 46.2891L53.2324 46.9922L53.7012 47.8125L54.1406 48.5742L54.4629 49.1309L54.873 49.834L55.2832 50.5664L55.4004 50.8594L55.4297 50.9766V51.5332L55.3125 51.8848L55.1367 52.1777L54.9316 52.4121L54.6387 52.6172L54.3457 52.7344L54.082 52.793H53.7305L50.918 52.2949L49.4824 52.0312L45.8496 51.3867L45.7324 51.3574L45.6738 51.6211L45.0586 53.3496L44.6777 54.4043L43.6816 57.1582L43.3887 57.9492L43.125 58.7109L42.9785 59.0625L42.7734 59.3555L42.5391 59.5898L42.0703 59.8242L41.8359 59.8828H41.3672L41.0156 59.7949L40.6934 59.6191L40.459 59.4141L40.1953 59.0332L39.7559 58.2715L39.2871 57.4512L38.877 56.748L37.998 55.2246L37.5879 54.5215L37.1191 53.7012L36.709 52.998L36.2402 52.1777L35.8301 51.4746L35.3613 50.6543L34.9512 49.9512L33.6328 47.666L33.3984 47.2559L33.252 47.2852L32.666 47.5488L32.0215 47.7539L31.4062 47.9004L30.5273 48.0176H29.4434L28.7402 47.9297L28.0664 47.7832L27.1875 47.4902L26.6895 47.2559H26.6016L25.7812 48.6914L25.3418 49.4531L25.0488 49.9512L24.873 50.2441L24.6973 50.5664L23.8184 52.0898L23.4961 52.6465L23.0859 53.3496L22.6172 54.1699L22.1777 54.9316L21.8262 55.5176L21.6504 55.8398L20.7715 57.3633L20.4492 57.9199L20.0684 58.5645L19.8926 58.8867L19.6582 59.2676L19.5117 59.4434L19.248 59.6484L18.8965 59.8242L18.6328 59.8828H18.2227L17.9297 59.8242L17.5781 59.6777L17.2266 59.3555L17.0215 59.0625L16.7285 58.3008L16.0547 56.4258L15.6738 55.3711L15.0293 53.584L14.5312 52.207L14.2676 51.4746V51.3574L10.0488 52.1191L7.70508 52.5293L6.41602 52.7637L6.21094 52.793H5.94727L5.6543 52.7344L5.30273 52.5879L5.09766 52.4414V52.3828L4.98047 52.3242L4.74609 52.002L4.59961 51.6797L4.54102 51.2109L4.62891 50.7422L4.86328 50.2734L5.15625 49.7754L6.03516 48.252L6.44531 47.5488L6.91406 46.7285L7.35352 45.9668L7.64648 45.4688L8.11523 44.6484L8.52539 43.9453L8.99414 43.125L9.28711 42.627L9.63867 42.0117L10.0781 41.25L10.4883 40.5469L10.9277 39.7852L11.2793 39.1699L12.1582 37.6465L12.5098 37.0312L12.5684 36.9434L12.5391 36.7969L12.3047 36.5039L12.0117 36.2402L11.6309 36.0059L10.7812 35.6543L10.3125 35.4199L9.84375 35.127L9.43359 34.8047L9.14062 34.541L8.61328 34.0137L8.23242 33.5156L7.88086 32.9883L7.4707 32.1973L7.20703 31.5234L7.03125 30.9082L6.88477 30.1172L6.82617 29.5605V28.7988L6.91406 28.0371L7.06055 27.3633L7.26562 26.748L7.5 26.2207L7.82227 25.6641L8.05664 25.2832L8.23242 24.9023L8.34961 24.4336L8.37891 23.9941L8.32031 23.5254L8.17383 23.0859L7.96875 22.6758L7.67578 22.207L7.5 21.9141L7.23633 21.2988L7.06055 20.7715L6.88477 19.9219L6.82617 19.3652V18.5742L6.91406 17.7832L7.08984 16.9922L7.35352 16.2012L7.61719 15.6152L7.91016 15.0879L8.11523 14.7656L8.4082 14.3555L8.64258 14.0918L8.84766 13.8574L9.25781 13.4473L9.66797 13.125L10.0781 12.832L10.6055 12.5391L11.0742 12.334L11.6895 12.0703L12.041 11.8359L12.334 11.5723L12.5684 11.2793L12.8027 10.8105L12.9199 10.4004L12.9785 9.99023L13.0371 9.25781L13.1543 8.64258L13.3887 7.88086L13.6523 7.29492L13.9746 6.70898L14.4434 6.06445L14.7656 5.68359L14.9414 5.47852H15V5.41992L15.2344 5.21484L15.3516 5.09766H15.4102V5.03906L15.9961 4.59961L16.4355 4.30664L17.0801 3.95508L17.6953 3.69141L18.1348 3.54492L18.8672 3.36914L19.5117 3.28125H20.5957L21.2109 3.36914L22.0898 3.57422L22.3242 3.60352H22.793L23.2617 3.51562L23.7012 3.33984L24.0234 3.13477L24.3457 2.87109L24.6094 2.54883L24.9609 2.13867L25.3418 1.75781L25.752 1.43555L26.1328 1.17188L26.748 0.820312L27.4219 0.527344L27.9785 0.351562L28.623 0.205078L29.2969 0.117188L29.6777 0.0878906ZM29.8828 1.99219L29.3848 2.02148L28.8281 2.10938L28.1836 2.28516L27.5684 2.54883L27.0996 2.8125L26.6895 3.13477L26.5723 3.22266V3.28125L26.4551 3.33984L26.1328 3.69141L25.8984 3.98438V4.04297H25.8398L25.6348 4.27734L25.3418 4.54102L24.873 4.86328L24.3164 5.15625L23.7305 5.36133L23.1738 5.47852L22.9395 5.50781H22.1484L21.5625 5.41992L20.6836 5.21484L20.3906 5.18555H19.6289L19.043 5.27344L18.457 5.44922L17.959 5.6543L17.4023 5.94727L16.9922 6.24023L16.6699 6.50391L16.377 6.76758L16.084 7.06055L15.7031 7.55859L15.4688 7.93945L15.2051 8.49609L15.0293 9.02344L14.9707 9.28711L14.8242 10.6641L14.6777 11.25L14.4434 11.8359L14.1211 12.3926L13.7402 12.8613L13.3887 13.2129L13.0078 13.5059L12.5098 13.7988L11.8945 14.0625L11.3672 14.2969L10.9277 14.5605L10.6055 14.8242L10.3125 15.0879L10.1074 15.293L9.78516 15.7031L9.49219 16.1719L9.25781 16.6113L8.99414 17.3145L8.84766 17.8711L8.75977 18.4277V19.5117L8.84766 20.0391L9.02344 20.625L9.25781 21.1523L9.63867 21.7676L9.93164 22.3242L10.166 23.0273L10.2539 23.4961L10.2832 23.8184V24.2871L10.2246 24.8145L10.0781 25.4004L9.84375 25.9863L9.55078 26.5137L9.28711 26.9238L9.05273 27.4219L8.90625 27.8613L8.78906 28.3887L8.75977 28.623V29.707L8.84766 30.2637L8.99414 30.8203L9.19922 31.377L9.43359 31.875L9.72656 32.3438L10.0488 32.7539L10.1367 32.8711H10.1953L10.2539 32.9883L10.3711 33.1055H10.4297V33.1641L10.8398 33.4863L11.2793 33.7793L11.7773 34.0137L12.4219 34.2773L12.8906 34.541L13.2422 34.8047L13.5352 35.0684L13.6523 35.1855H13.7109L13.7695 35.3027L14.0625 35.6543L14.3848 36.1816L14.6191 36.709L14.7949 37.3242L14.8828 38.0273L14.9707 38.8477L15.1172 39.4043L15.293 39.8438L15.5566 40.3418L15.8203 40.7227L16.084 41.0449L16.4062 41.3965L16.7285 41.6895L17.0801 41.9531L17.5488 42.2461L18.0469 42.5098L18.5742 42.7148L19.1309 42.8613L19.5117 42.9199L19.8926 42.9492H20.2734L20.7715 42.8906L21.3867 42.7441L22.002 42.627L22.2949 42.5977H22.7051L23.291 42.6562L23.7891 42.7734L24.3457 42.9785L24.9023 43.2715L25.3711 43.623L25.7227 43.9453L25.9863 44.2383L26.25 44.5605L26.3965 44.7363L26.6309 44.9414L27.041 45.2637L27.5391 45.5566L28.0664 45.791L28.623 45.9668L29.3262 46.084L29.6484 46.1133H30.3516L30.8789 46.0547L31.4355 45.9375L31.9043 45.791L32.373 45.5859L32.8125 45.3516L33.2227 45.0586L33.6621 44.6484L33.9258 44.3555L34.1602 44.0625L34.5996 43.623L35.0391 43.3008L35.5078 43.0371L35.918 42.8613L36.3867 42.7148L36.8848 42.627L37.1484 42.5977H37.7344L38.3496 42.6855L39.0527 42.8613L39.4629 42.9199H40.459L40.957 42.832L41.4844 42.6855L42.041 42.4512L42.5977 42.1582L43.0664 41.8359L43.4766 41.4844L43.9453 41.0156L44.2676 40.6055L44.5312 40.1953L44.8242 39.5508L44.9707 39.0527L45.0586 38.5547L45.1465 37.6172L45.2637 37.0605L45.4688 36.4746L45.791 35.8594L46.0254 35.5371L46.2891 35.2148L46.582 34.9219L46.9629 34.6289L47.3438 34.3945L47.959 34.1016L48.5156 33.8672L48.8965 33.6621L49.3066 33.3691L49.5996 33.1055L49.9512 32.7539L50.1855 32.4609L50.4492 32.0508L50.8008 31.377L51.0059 30.791L51.1816 30.0879L51.2402 29.5898V28.6816L51.123 28.0078L50.9766 27.5098L50.7129 26.9238L50.2734 26.2207L50.0098 25.6641L49.8633 25.2246L49.7461 24.668L49.7168 24.4043V23.7012L49.8047 23.1445L49.9805 22.5293L50.1855 22.0605L50.4785 21.5625L50.7422 21.1523L51.0059 20.5371L51.1523 20.0098L51.2402 19.4238V18.4863L51.123 17.7539L50.918 17.0508L50.6543 16.4355L50.3906 15.9668L50.127 15.5859L49.8633 15.2637L49.4531 14.8535L48.9844 14.502L48.457 14.209L47.6074 13.8574L47.0801 13.5645L46.6992 13.2715L46.4062 13.0078L46.0547 12.627L45.791 12.2461L45.5566 11.8359L45.3809 11.4258L45.2344 10.957L45.1172 10.2539L45.0293 9.3457L44.9121 8.84766L44.6777 8.23242L44.4141 7.73438L44.0625 7.23633L43.7109 6.85547L43.3887 6.5332L42.8906 6.15234L42.4219 5.85938L41.9531 5.625L41.3672 5.39062L40.752 5.24414L40.3418 5.18555H39.5508L38.9648 5.27344L38.2324 5.44922L37.793 5.50781H37.0312L36.4746 5.41992L35.8887 5.24414L35.4199 5.03906L34.9805 4.77539L34.5996 4.48242L34.248 4.16016L33.7207 3.51562H33.6621L33.6035 3.39844L33.2227 3.04688L32.6953 2.69531L32.2559 2.46094L31.7285 2.25586L31.0254 2.08008L30.5566 2.02148L29.8828 1.99219ZM13.1836 39.668L12.7441 40.459L12.334 41.1621L11.9824 41.7773L11.5723 42.4805L10.6934 44.0039L10.2832 44.707L9.90234 45.3809L9.49219 46.084L9.02344 46.9043L8.55469 47.6953L8.14453 48.4277L7.73438 49.1309L7.29492 49.8926L6.97266 50.4492L6.82617 50.6836V50.7422L7.06055 50.7129L8.4082 50.4785L14.0918 49.4531L14.6484 49.3652H15.0879L15.4395 49.541L15.6445 49.7754L15.8203 50.1562L16.4062 51.7969L16.9922 53.4082L17.5781 55.0488L17.959 56.1035L18.3691 57.2168L18.457 57.4512H18.5156L18.8086 56.9531L19.2773 56.1328L19.6875 55.4297L20.1562 54.6094L20.4785 54.0527L20.918 53.291L21.2695 52.6758L21.6797 51.9727L22.1191 51.2109L22.5293 50.5078L22.998 49.6875L23.4082 48.9844L23.8477 48.2227L24.3164 47.4023L24.7559 46.6406L25.0488 46.1426L25.0195 45.9961L24.6973 45.6445L24.4336 45.3223L24.1699 45.0586L23.7891 44.7949L23.4082 44.6191L22.9688 44.502L22.5 44.4727L21.9727 44.5312L21.2402 44.707L20.6836 44.7949L20.3613 44.8242H19.7461L19.1602 44.7656L18.4277 44.6191L17.7539 44.4141L17.1387 44.1504L16.6699 43.916L16.1426 43.5938L15.791 43.3301L15.498 43.0957L15.1465 42.7734L14.6484 42.2754L14.3262 41.8652L13.9746 41.3379L13.7402 40.9277L13.4766 40.3711L13.2129 39.668H13.1836ZM46.7871 39.668L46.6699 39.9609L46.4941 40.4297L46.3477 40.752L46.0547 41.3086L45.7617 41.748L45.4395 42.1582L44.9121 42.7441L44.6777 42.9492L44.2676 43.3008L43.8867 43.5645L43.4766 43.8281L42.6855 44.2383L42.0703 44.4727L41.3086 44.6777L40.5762 44.7949L40.2539 44.8242H39.5801L39.0527 44.7656L38.4668 44.6484L37.8223 44.502L37.3242 44.4727L36.8555 44.5312L36.3574 44.707L35.9473 44.9707L35.5957 45.293L35.332 45.5859L35.0684 45.9082L34.9219 46.084L35.9766 47.9297L36.416 48.6914L36.709 49.1895L37.1777 50.0098L37.5879 50.7129L38.0566 51.5332L38.4668 52.2363L38.9062 52.998L39.3164 53.7012L39.5508 54.1113L39.9609 54.8145L40.4297 55.6348L40.8398 56.3379L41.0742 56.748L41.4551 57.3926L41.543 57.4512L41.6309 57.2168L42.1582 55.7812L42.4512 54.9316L43.0371 53.3203L43.4766 52.0898L43.8574 51.0352L44.2676 49.9219L44.4434 49.6289L44.6777 49.4531L44.8828 49.3652H45.3516L48.1934 49.8633L53.0859 50.7422L53.1738 50.7129L52.7637 49.9805L52.3535 49.2773L51.8848 48.457L51.4746 47.7539L51.0059 46.9336L50.7129 46.4355L47.6367 41.1035L47.2266 40.4004L46.9336 39.873L46.8164 39.668H46.7871Z" fill="#00B4DD"/>
<path d="M34.5117 12.5977H35.2148L35.5957 12.6855L36.0059 12.8613L36.3574 13.0957L36.709 13.418L37.002 13.8281L37.1777 14.2383L37.3828 14.9414L37.7051 16.1719L37.9688 17.1387V17.1973H38.2324L38.7305 17.2852L39.1992 17.4316L39.6094 17.6074L40.0781 17.9004L40.4004 18.1641L40.8398 18.6035L41.1035 18.9844L41.3086 19.3359L41.4844 19.7461L41.6309 20.3027L41.6895 20.6543V21.4453L41.5723 22.0605L41.3672 22.6172L41.1035 23.1152L40.8691 23.4375L40.6055 23.7305L40.3125 24.0234L39.9023 24.3164L40.0195 24.7852L40.3418 26.0156L40.6348 27.0996L40.6934 27.3926L40.7227 27.8027L40.6348 28.3887L40.4883 28.7695L40.2539 29.1797L39.9316 29.5312L39.6973 29.7363L39.2871 29.9707L38.877 30.1172L38.3789 30.2051L37.9102 30.1758L37.4414 30.0586L37.1777 29.9414L36.8555 29.7656L36.5039 29.4727L36.2695 29.1797L29.2969 28.8574H28.8281L29.0918 29.8828L29.7363 32.2852L29.9707 33.1641L30.0293 33.6328L29.9707 34.043L29.8242 34.3945L29.5898 34.7168L29.2969 34.9512L28.8867 35.127L27.9492 35.3906L27.4805 35.5078L27.0117 35.5371L26.543 35.4199L26.25 35.2441L25.957 34.9805L25.752 34.6582L25.5762 34.1895L24.7559 31.1133L24.4336 29.8828V29.8242L23.9648 29.7949L23.5254 29.6777L23.0273 29.4141L22.6465 29.0625L22.5586 28.9453L22.2363 28.9746H21.7676L21.1523 28.8867L20.5371 28.6816L19.9805 28.3887L19.5996 28.0957L19.248 27.7734L18.9258 27.3633L18.6914 26.9531L18.4863 26.4844L18.3691 26.0742L18.3105 25.7227L18.2812 25.1953L18.3398 24.6973L18.457 24.1992L18.6328 23.7598L18.8672 23.3203L19.1016 22.998L19.4238 22.6465L19.6289 22.4414L20.0391 22.1484L20.4785 21.9141L20.625 21.8555L20.7715 21.3281L21.0059 20.8887L21.3281 20.5078L21.6504 20.2441L22.0605 20.0391L22.7344 19.834L23.9648 19.5117L25.6934 19.043L26.0449 18.8672L26.6309 18.4863L27.3633 18.0176L28.7402 17.1387L30.7617 15.8496L32.1387 14.9707L32.373 14.8242L32.4902 14.3555L32.6367 13.9746L32.8711 13.5645L33.2227 13.1836L33.6328 12.8906L34.0137 12.7148L34.5117 12.5977ZM34.6875 14.502L34.4531 14.6484L34.3359 14.8242L34.3066 14.9414V15.1465L34.5996 16.2891L35.0977 18.1348L35.8887 21.0938L37.2949 26.3379L37.6758 27.7441L37.793 28.0664L37.9688 28.2129L38.1152 28.2715H38.4082L38.6426 28.125L38.7598 27.9785L38.7891 27.8906V27.5977L38.4668 26.3672L37.7051 23.5254L37.1191 21.3281L36.7969 20.1562L36.5039 19.043L35.8301 16.5234L35.4199 15L35.3027 14.707L35.0977 14.5312L35.0098 14.502H34.6875ZM32.7246 16.8457L32.2852 17.1387L31.5527 17.6074L30.9961 17.959L29.8535 18.6914L29.209 19.1016L28.6523 19.4531L28.1543 19.7754L27.4219 20.2441L27.3047 20.332L27.334 20.5957L27.832 22.4707L28.5059 24.9902L29.0039 26.8359L29.0332 26.9238L29.3555 26.9531L35.332 27.2168H35.5664L35.5078 26.9238L34.9512 24.8438L33.6035 19.8047L33.1055 17.959L32.8418 16.9629L32.7832 16.8457H32.7246ZM38.5254 19.2188L38.584 19.541L38.9648 20.9766L39.2871 22.207L39.3457 22.2656L39.4629 22.1484L39.668 21.7383L39.7559 21.416L39.7852 21.2402V20.8301L39.6973 20.4199L39.4629 19.9512L39.2285 19.6582L38.9355 19.4238L38.5254 19.2188ZM25.4004 21.0938L22.8223 21.7969L22.6465 21.8848L22.5586 22.002L22.5293 22.1484L22.6758 22.793L22.998 23.9648L23.3203 25.1953L23.8477 27.1582L23.9941 27.6562L24.082 27.8027L24.1992 27.8906L24.3457 27.9199L25.4883 27.627L27.0996 27.1875L27.1289 27.0996L26.3379 24.1406L25.8984 22.5L25.5762 21.2988L25.5176 21.0938H25.4004ZM20.918 23.877L20.6836 24.082L20.4785 24.3457L20.3027 24.6973L20.2148 25.0781V25.5469L20.3027 25.8984L20.5078 26.3086L20.8008 26.6309L21.2402 26.9238L21.6504 27.041H21.8555L21.7383 26.543L21.0352 23.9062L20.918 23.877ZM26.8945 29.1797L26.3086 29.3555L26.2793 29.4434L26.5723 30.5273L27.2168 32.9297L27.3926 33.5449L27.6855 33.4863L28.0078 33.3984L28.0371 33.3105L27.3926 30.9082L27.0117 29.4727L26.9238 29.1797H26.8945Z" fill="#00B4DD"/>
<path d="M29.2969 7.5H30.5273L31.4062 7.55859L32.6074 7.70508L33.5156 7.88086L34.4531 8.11523L35.5371 8.4668L36.3574 8.78906L37.1191 9.14062L37.6758 9.43359L37.998 9.60938L38.4668 9.87305L39.0234 10.2246L39.5215 10.5762L39.9902 10.9277L40.4004 11.25L40.8105 11.6016L41.1035 11.8652L41.4844 12.2168L41.9824 12.7148L42.1875 12.9492L42.2754 13.0371V13.0957H42.334L42.5977 13.418L42.9199 13.7988L43.3301 14.3555L43.6816 14.8535L44.0332 15.4102L44.4434 16.1133L44.8828 16.9629L45.1465 17.5488L45.5273 18.5156L45.8203 19.4238L46.1133 20.5957L46.2891 21.5332L46.4062 22.4707L46.4648 23.4082V24.6973L46.4062 25.6641L46.2598 26.7773L46.084 27.6855L45.9082 28.3887L45.6445 29.2676L45.4395 29.8535L45.1172 30.6445L44.7656 31.4062L44.4141 32.0801L44.0332 32.7246L43.5938 33.3984L43.2422 33.8965L42.9199 34.3066L42.5391 34.7754L42.2754 35.0684L42.0703 35.3027L41.8066 35.5664L41.6016 35.8008L41.4844 35.918H41.4258V35.9766L41.1914 36.1816L40.7812 36.5625L40.1367 37.0898L39.7559 37.3828L39.1699 37.793L38.6719 38.1152L38.0859 38.4668L37.3242 38.877L36.6504 39.1992L35.9473 39.4922L34.9512 39.8438L34.1602 40.0781L33.1055 40.3125L32.2266 40.459L31.1719 40.5762L30.8203 40.6055H28.916L27.7441 40.4883L26.6895 40.3125L25.7812 40.1074L24.873 39.8438L24.0234 39.5508L23.3203 39.2578L22.5586 38.9062L21.8848 38.5547L21.3281 38.2324L20.5957 37.7637L20.127 37.4121L19.8047 37.1777L19.3945 36.8555L19.1016 36.5918L18.8672 36.3867L18.5742 36.123L17.666 35.2148V35.1562H17.6074L17.4023 34.9219L17.0801 34.541L16.7578 34.1309L16.377 33.6035L16.0547 33.1348L15.7031 32.5781L15.3516 31.9629L14.9414 31.1719L14.5605 30.3223L14.2676 29.5312L14.0332 28.8281L13.8281 28.0957L13.5938 26.9824L13.4473 25.957L13.3594 24.9902V23.1152L13.4473 22.1484L13.5645 21.3281L13.7402 20.4199L13.9453 19.5996L14.2383 18.6621L14.6191 17.666L14.9707 16.875L15.2637 16.3184L15.6152 15.6738L15.9668 15.1172L16.2598 14.6777L16.6406 14.1504L17.0215 13.6523L17.0801 13.5645H17.1387L17.1973 13.4473L17.4609 13.1543L17.7246 12.832L18.75 11.8066L18.9844 11.6016L19.3652 11.2793L19.8047 10.9277L20.3613 10.5176L21.0645 10.0488L21.7969 9.60938L22.7344 9.11133L23.584 8.73047L24.6094 8.34961L25.3711 8.11523L26.0449 7.93945L26.8945 7.76367L27.832 7.61719L28.7109 7.5293L29.2969 7.5ZM29.3262 9.4043L28.4473 9.46289L27.5391 9.58008L26.5137 9.78516L25.752 9.99023L24.7852 10.3125L23.9355 10.6641L23.0859 11.0742L22.4121 11.4551L21.7676 11.8652L21.2695 12.2168L20.7422 12.627L20.4199 12.8906L20.0684 13.2129L19.834 13.418L19.1309 14.1211L18.9258 14.3555L18.5742 14.7656L18.252 15.1758L17.8711 15.7031L17.4609 16.3184L17.1387 16.875L16.7871 17.5195L16.5234 18.1055L16.3184 18.5449L16.084 19.1602L15.8496 19.8926L15.6152 20.7715L15.4688 21.5332L15.3516 22.2949L15.2637 23.2617V24.873L15.3809 26.0742L15.5566 27.0996L15.791 28.0371L16.0254 28.7988L16.3477 29.6484L16.6113 30.2344L16.8457 30.7324L17.1973 31.377L17.6367 32.0801L17.8711 32.4316L18.2812 32.9883L18.6621 33.457L19.1895 34.0723H19.248L19.3066 34.1895L19.8926 34.7754L20.127 34.9805L20.4199 35.2441L21.2402 35.8887L21.7969 36.2695L22.2949 36.5918L22.9688 36.9727L23.6426 37.3242L24.375 37.6465L25.2539 37.9688L26.1328 38.2324L26.8945 38.4082L27.8906 38.584L28.6816 38.6719L29.0625 38.7012H30.7617L31.6699 38.6133L32.4902 38.4961L33.2227 38.3496L34.2773 38.0566L35.127 37.7637L35.8887 37.4414L36.6211 37.0898L37.3242 36.709L37.8809 36.3574L38.4375 35.9766L38.9062 35.625L39.375 35.2441L39.6973 34.9512L40.166 34.541V34.4824H40.2246V34.4238L40.3418 34.3652V34.3066H40.4004L40.6055 34.0723L40.8105 33.8672L40.9863 33.6621V33.6035H41.0449L41.3086 33.2812L41.7188 32.7539L42.1289 32.168L42.4805 31.6113L42.8613 30.9375L43.2715 30.1172L43.5059 29.5605L43.7988 28.7695L43.9746 28.2129L44.209 27.3047L44.3555 26.5723L44.4434 26.0156L44.5312 25.1367L44.5605 24.6387V23.5254L44.502 22.6465L44.3848 21.709L44.2383 20.9473L44.0039 20.0098L43.6523 18.9551L43.3594 18.2227L43.0078 17.4609L42.5977 16.6992L42.2168 16.084L41.8359 15.5273L41.4551 15.0293L41.0742 14.5605L40.7812 14.2383L40.5762 14.0039L39.7559 13.1836L39.4336 12.9199L39.0234 12.5684L38.4668 12.1582L37.9688 11.8066L37.4414 11.4844L36.8262 11.1328L36.2695 10.8398L35.4785 10.4883L34.4531 10.1074L33.4277 9.81445L32.4316 9.60938L31.6113 9.49219L30.9375 9.43359L30.293 9.4043H29.3262Z" fill="#00B4DD"/>
</svg>
