<svg width="60" height="60" viewBox="0 0 60 60" fill="none" xmlns="http://www.w3.org/2000/svg">
<path d="M6.50391 10.2832H8.4082L8.4668 10.3711L8.4375 12.1875L6.5332 12.2168L6.21094 12.2754L5.94727 12.4512L5.80078 12.627L5.68359 12.9199L5.6543 13.3008L5.625 42.1582H54.3457L54.3164 12.9492L54.1992 12.627L53.9941 12.3926L53.7598 12.2754L53.4668 12.2168L51.5625 12.1875L51.5332 12.1582V10.3418L51.5918 10.2832H53.4082L54.0234 10.3418L54.4922 10.4883L54.9023 10.6934L55.3125 10.9863V11.0449L55.4297 11.1035L55.6641 11.3672L55.9277 11.7773L56.1328 12.2168L56.2207 12.5684L56.25 12.7734L56.2793 13.9746L56.25 42.1582L56.7188 42.2168L57.1582 42.3926L57.4805 42.627L57.7441 42.8906L57.9492 43.2129L58.0957 43.5938L58.125 43.7695V47.3145L58.0371 47.8711L57.9199 48.3105L57.7441 48.7793L57.4219 49.3945L57.0703 49.8633L56.748 50.2148L56.543 50.4199L56.0742 50.7715L55.5762 51.0645L55.0488 51.2988L54.375 51.4746L54.0527 51.5332L53.7305 51.5625H6.24023L5.71289 51.5039L5.12695 51.3574L4.54102 51.123L4.04297 50.8594L3.69141 50.5957L3.36914 50.332L3.04688 50.0098L2.72461 49.5996L2.46094 49.1895L2.22656 48.7207L2.05078 48.252L1.93359 47.7832L1.875 47.3438L1.8457 46.9336V43.9746L1.9043 43.5938L2.05078 43.2129L2.25586 42.8906L2.63672 42.5098L3.07617 42.2754L3.42773 42.1875L3.7207 42.1582V13.0078L3.7793 12.5391L3.92578 12.0703L4.16016 11.6016L4.45312 11.2207L4.6875 10.9863L5.03906 10.7227L5.47852 10.4883L5.97656 10.3418L6.50391 10.2832ZM3.7793 44.0625L3.75 44.3848V46.875L3.80859 47.4316L3.89648 47.7539L4.04297 48.1055L4.21875 48.4277L4.48242 48.75L4.77539 49.043L5.21484 49.3359L5.68359 49.541L6.09375 49.6289L6.29883 49.6582H53.7305L54.1992 49.5703L54.5801 49.4238L55.0195 49.1895L55.3418 48.9258L55.5762 48.6914L55.8398 48.3105L56.0449 47.9004L56.1621 47.5195L56.2207 47.1387V44.0625H36.5918L36.5625 44.3848L36.5332 46.2012L36.4453 46.5527L36.2109 47.0215L35.918 47.3438L35.625 47.5488L35.2734 47.6953L35.0684 47.7539L34.834 47.7832H25.0488L24.6094 47.666L24.3164 47.5195L24.0234 47.2852L23.7891 47.0215L23.6133 46.7285L23.4961 46.4062L23.4668 46.2598L23.4375 45.8496L23.4082 44.0625H3.7793ZM25.3418 44.0625L25.3125 44.1211V45.9082L34.5703 45.9375L34.6582 45.9082V44.0625H25.3418Z" fill="#00B4DD"/>
<path d="M37.2949 1.875H37.7344L37.998 1.99219L38.2324 2.19727L38.3789 2.43164L38.4375 2.63672V8.4082H39.4043L39.9609 8.4668L40.4297 8.61328L40.8984 8.84766L41.3086 9.16992L41.5137 9.375L41.8066 9.78516L42.0117 10.1953L42.1289 10.5469L42.1875 10.8691V11.6309L42.0703 12.1289L41.8652 12.5977L41.6602 12.9199L41.3086 13.3301L40.9277 13.623L40.459 13.8574L40.0195 14.0039L39.6094 14.0625L38.4668 14.0918L38.4375 19.8926L38.3203 20.1855L38.0566 20.4785L37.793 20.5957L37.6465 20.625H37.3535L37.002 20.5371L35.3906 19.9512L34.0723 19.4824L30.791 18.3105L27.832 17.2559L26.7773 16.875L25.459 16.4062L24.873 16.2012L24.1699 15.9668L23.3496 15.9375L23.291 16.6113L23.0859 18.4277L22.7344 21.5918L22.5293 23.4082L22.4414 23.8184L22.2656 24.082L22.0605 24.2578L21.8555 24.3457L21.6797 24.375H17.6367L17.3145 24.2578L17.0508 24.0234L16.875 23.6719L16.8457 23.4375V15.9375H15.7617L15.4395 15.8203L15.1465 15.5566L15 15.2051L14.9707 14.7949L14.4434 14.6777L12.0996 14.0918L11.748 13.9746L11.5137 13.7988L11.3379 13.5938L11.25 13.3594L11.2207 13.0371V9.31641L11.2793 9.02344L11.4258 8.78906L11.543 8.64258L11.7773 8.49609L12.3926 8.32031L14.8828 7.70508H14.9707L15 7.29492L15.1172 7.00195L15.2344 6.82617H15.293V6.76758L15.6738 6.5625L15.9082 6.5332L24.2578 6.50391L25.4297 6.09375L26.4844 5.71289L28.0371 5.15625L32.4609 3.57422L37.0605 1.93359L37.2949 1.875ZM36.5039 4.16016L33.7207 5.15625L32.4023 5.625L31.2012 6.06445L30.3516 6.35742L29.5312 6.65039L28.5645 7.00195L27.8027 7.26562L25.3711 8.14453L25.3418 8.17383L25.3125 8.58398V14.2676L25.3711 14.3555L26.2207 14.6484L28.916 15.6152L29.8828 15.9668L30.6445 16.2305L31.5234 16.5527L32.2852 16.8164L33.1641 17.1387L34.0137 17.4316L34.8047 17.7246L35.6543 18.0176L36.3574 18.2812L36.5332 18.3398V4.16016H36.5039ZM16.9043 8.4375L16.875 8.49609V14.0332H23.4082V8.4375H16.9043ZM14.9414 9.63867L13.1836 10.0781L13.125 10.1953V12.3633L13.3887 12.4512L14.7656 12.8027L14.9707 12.8613V9.63867H14.9414ZM38.4668 10.3125L38.4375 10.4004V12.1582H39.5215L39.7852 12.0703L40.0488 11.8945L40.2246 11.6309L40.2832 11.4551V11.0449L40.1367 10.6934L39.9316 10.4883L39.6973 10.3711L39.375 10.3125H38.4668ZM18.7793 15.9375L18.75 16.6699V22.4707H20.7129L20.9766 20.127L21.3281 16.9629L21.416 16.2305V15.9375H18.7793Z" fill="#00B4DD"/>
<path d="M24.3457 25.2832H28.0664L28.4473 25.3418L28.7402 25.5176L28.9453 25.752L29.0625 26.0449V38.4082H30.9082L30.9668 38.4961L30.9375 40.3125H8.4375L8.4082 40.2832V38.4668L8.4668 38.4082H10.2832V32.7832L10.3418 32.4902L10.459 32.2559L10.5469 32.1387H10.6055V32.0801L10.8984 31.9043L11.2207 31.8457H14.9707L15.3223 31.9043L15.5566 32.0215L15.7617 32.2266L15.9082 32.4902L15.9375 32.6074V38.4082H16.8457V29.9414L16.9043 29.6777L17.0215 29.4434L17.1094 29.3262H17.168V29.2676L17.4609 29.0918L17.7832 29.0332H21.5039L21.8848 29.0918L22.1191 29.209L22.3242 29.4141L22.4707 29.6777L22.5 29.7949V38.4082H23.4082V26.1914L23.4668 25.9277L23.584 25.6934L23.7305 25.5469L23.9648 25.3711L24.1113 25.3125L24.3457 25.2832ZM25.3418 27.1875L25.3125 27.2461V38.4082L27.0703 38.4375L27.1582 38.4082V27.1875H25.3418ZM18.7793 30.9375L18.75 30.9961V38.4082L20.5078 38.4375L20.5957 38.4082V30.9375H18.7793ZM12.2168 33.75L12.1875 33.8086V38.4082L13.9453 38.4375L14.0332 38.4082V33.75H12.2168Z" fill="#00B4DD"/>
<path d="M41.8945 25.2832H42.2461L42.5098 25.3418L42.7441 25.459L42.9492 25.6641L43.0957 25.9277L43.125 26.0449V31.8457H48.75L49.0723 31.9043L49.3066 32.0215L49.5117 32.2266L49.6582 32.4902L49.6875 32.6074V33.4277L49.5996 34.0723L49.5117 34.541L49.3066 35.2441L49.0137 35.9766L48.6914 36.5918L48.3984 37.0605L48.0176 37.5586L47.7832 37.8516H47.7246L47.666 37.9688L47.2852 38.3496L46.9629 38.6133L46.6699 38.8477L46.377 39.0527L45.9961 39.2871L45.5273 39.5508L44.8535 39.8438L44.0918 40.0781L43.3887 40.2246L43.0078 40.2832L42.6562 40.3125H41.6602L40.8984 40.2246L40.1367 40.0488L39.4336 39.8145L38.8477 39.5508L38.2617 39.2285L37.9102 38.9941L37.5586 38.7305L37.2363 38.4668L36.8555 38.1152L36.6504 37.9102L36.3867 37.5879L36.0352 37.1484L35.6836 36.5918L35.332 35.918L35.0391 35.1855L34.8633 34.5703L34.7168 33.75L34.6582 33.1348V32.4902L34.7168 31.8457L34.834 31.1719L35.0391 30.4395L35.2734 29.8242L35.5078 29.3262L35.8008 28.8281L36.0352 28.4766L36.416 27.9785L36.5039 27.8613H36.5625L36.6211 27.7441L37.2363 27.1289L37.6465 26.8066L38.0566 26.5137L38.4961 26.25L39.0527 25.957L39.6387 25.7227L40.0781 25.5762L40.8398 25.4004L41.4844 25.3125L41.8945 25.2832ZM41.1621 27.2754L40.5762 27.4219L39.9902 27.627L39.5215 27.8613L39.1113 28.0957L38.6426 28.4473L38.291 28.7695L37.9395 29.1211L37.5586 29.6191L37.2656 30.0879L36.9727 30.7031L36.7676 31.3184L36.6504 31.8457L36.5625 32.6367V32.9883L36.6504 33.7793L36.7969 34.3945L37.002 34.9805L37.2656 35.5371L37.5586 36.0059L37.8809 36.416L38.2031 36.7676L38.4668 37.0312L38.877 37.3535L39.3164 37.6465L39.7559 37.8809L40.3418 38.1152L40.8398 38.2617L41.4844 38.3789L41.748 38.4082H42.6562L43.2715 38.3203L43.8574 38.1738L44.5898 37.8809L45.0879 37.6172L45.4395 37.3828L45.8203 37.0898L46.2598 36.6797L46.3477 36.5918V36.5332H46.4062L46.7285 36.123L47.0215 35.6836L47.3145 35.127L47.5488 34.4824L47.666 34.0723L47.7246 33.75L42.0117 33.7207L41.6895 33.6035L41.4258 33.3691L41.2793 33.0469L41.25 32.7246L41.2207 27.2754H41.1621Z" fill="#00B4DD"/>
<path d="M44.9121 22.4707H45.3223L46.1719 22.5586L46.875 22.7051L47.4609 22.8809L48.0469 23.1152L48.5156 23.3496L48.8379 23.5254L49.248 23.7891L49.5996 24.0527L49.9219 24.3164L50.3906 24.7559L50.7422 25.1367L51.123 25.6348L51.4746 26.1621L51.8848 26.9531L52.1191 27.5684L52.3242 28.2715L52.4414 28.8867L52.5 29.3848V30.2051L52.3828 30.498L52.1484 30.7617L51.8555 30.9082L51.6797 30.9375H44.8242L44.502 30.8203L44.209 30.5566L44.0625 30.2344L44.0332 30.0293V23.3789L44.0918 23.1152L44.209 22.8809L44.3555 22.7051L44.6484 22.5293L44.9121 22.4707ZM45.9668 24.4629L45.9375 24.5801V29.0332H50.5078L50.4785 28.7695L50.2734 28.0664L49.9805 27.3926L49.6875 26.8945L49.4531 26.5723L49.1309 26.1914L48.6914 25.752L48.1934 25.3711L47.666 25.0488L47.1094 24.7852L46.4941 24.5801L45.9668 24.4629Z" fill="#00B4DD"/>
<path d="M46.6113 3.95508L46.7285 3.98438L46.875 4.13086V4.18945H46.9336L47.1387 4.42383L47.4609 4.80469L47.8125 5.27344L48.1934 5.85938L48.5449 6.47461L48.8672 7.14844L49.1602 7.91016L49.3652 8.61328L49.541 9.4043L49.6582 10.2246L49.6875 10.6348V11.8945L49.6289 12.5098L49.4824 13.3887L49.2773 14.209L49.043 14.9121L48.7207 15.6738L48.3691 16.3477L48.0469 16.875L47.6953 17.373L47.4023 17.7539L47.0508 18.1641L46.9629 18.2812H46.9043V18.3398H46.8457L46.7871 18.457L46.6699 18.5449L46.5527 18.457V18.3984L46.4355 18.3398L45.3516 17.2559L45.3809 17.1094L45.4688 17.0801V17.0215H45.5273V16.9629H45.5859L45.6445 16.8457L45.9082 16.5527L46.3184 15.9961L46.6406 15.4688L46.9922 14.7949L47.1973 14.3262L47.4316 13.623L47.6367 12.7734L47.7246 12.0996L47.7539 11.748V10.7227L47.666 9.93164L47.5195 9.19922L47.373 8.67188L47.1094 7.96875L46.875 7.44141L46.4941 6.76758L46.2598 6.41602L45.9082 5.94727L45.5566 5.53711L45.3223 5.30273L45.3516 5.21484H45.4102L45.4688 5.09766L45.7617 4.83398L45.9082 4.6582H45.9668L46.0254 4.54102H46.084L46.1426 4.42383H46.2012L46.2598 4.30664L46.6113 3.95508Z" fill="#00B4DD"/>
<path d="M43.6816 5.94727L43.7988 5.97656L44.0625 6.24023L44.3262 6.5625L44.6484 7.00195L45 7.55859L45.3223 8.20312L45.5273 8.73047L45.7324 9.43359L45.8789 10.166L45.9375 10.7227V11.8066L45.8789 12.334L45.7324 13.0664L45.5859 13.5938L45.3223 14.2969L45 14.9414L44.6484 15.498L44.2969 15.9668L43.916 16.4062L43.7988 16.5527L43.6523 16.4941L43.623 16.4062L43.5059 16.3477L42.4219 15.2637L42.4512 15.1465L42.5391 15.0293H42.5977L42.6562 14.9121L42.8613 14.6777L43.1836 14.209L43.4473 13.7402L43.6816 13.1836L43.8867 12.4805L44.0039 11.6895V10.8105L43.916 10.166L43.7695 9.58008L43.5645 9.02344L43.3301 8.55469L43.0664 8.08594L42.7734 7.70508L42.4512 7.35352L42.4219 7.20703H42.4805L42.5391 7.08984L42.832 6.82617L42.8613 6.76758H42.9199L42.9785 6.65039H43.0371L43.0957 6.5332H43.1543L43.2129 6.41602H43.2715L43.3301 6.29883L43.5938 6.03516H43.6523L43.6816 5.94727Z" fill="#00B4DD"/>
</svg>
