<svg width="60" height="60" viewBox="0 0 60 60" fill="none" xmlns="http://www.w3.org/2000/svg">
<path d="M6.5332 1.8457H47.7246L48.5449 1.9043L49.1016 2.02148L49.6582 2.22656L50.127 2.46094L50.5957 2.75391L50.9766 3.07617L51.3867 3.48633L51.7383 3.95508L52.0312 4.45312L52.2949 5.09766L52.4414 5.68359L52.5 6.15234L52.5293 8.02734L52.5 18.0176L52.3828 18.3105L52.1484 18.5742L51.8555 18.7207L51.709 18.75H51.3867L51.0645 18.6328L50.8008 18.3984L50.625 18.0469L50.5957 17.8125V11.25H3.7793V45.9375L3.83789 46.4941L3.92578 46.8164L4.07227 47.1973L4.33594 47.6074L4.59961 47.9004L4.80469 48.1055L5.27344 48.3984L5.68359 48.5742L6.09375 48.6621L6.26953 48.6914L23.3203 48.7207L23.6719 48.75L24.0234 48.9258L24.2578 49.1895L24.3457 49.3652L24.375 49.4824V49.9219L24.1992 50.2734L23.9355 50.5078L23.5547 50.625H6.24023L5.71289 50.5664L5.12695 50.4199L4.6582 50.2441L4.10156 49.9512L3.69141 49.6582L3.31055 49.3359L3.04688 49.0723L2.72461 48.6621L2.46094 48.252L2.22656 47.7832L2.05078 47.3145L1.93359 46.8164L1.875 46.4062L1.8457 46.0254V6.44531L1.9043 5.80078L2.05078 5.18555L2.22656 4.7168L2.46094 4.24805L2.63672 3.95508L2.98828 3.48633L3.54492 2.92969L3.98438 2.60742L4.45312 2.34375L4.83398 2.16797L5.27344 2.02148L5.83008 1.9043L6.5332 1.8457ZM6.50391 3.75L5.97656 3.80859L5.625 3.89648L5.15625 4.13086L4.83398 4.33594L4.57031 4.57031V4.62891H4.51172L4.27734 4.92188L4.04297 5.33203L3.86719 5.74219L3.7793 6.21094L3.75 6.65039V9.3457L50.5078 9.375L50.5957 9.3457V6.26953L50.5078 5.80078L50.3613 5.39062L50.1562 5.00977L49.9512 4.74609L49.7168 4.48242L49.3652 4.21875L49.0137 4.01367L48.6035 3.86719L48.1934 3.7793L47.8418 3.75H6.50391Z" fill="#00B4DD"/>
<path d="M16.5234 14.9707H17.1387L17.9297 15.0293L18.6914 15.1465L19.4238 15.3223L20.3027 15.6152L21.0938 15.9668L21.6797 16.2891L22.2949 16.6992L22.7637 17.0508L23.1738 17.4023L23.3789 17.6074L23.6133 17.8125L23.9355 18.1641L24.3164 18.6328L24.6973 19.1602L25.0195 19.6875L25.3711 20.3613L25.6641 21.0352L25.9277 21.8555L26.1035 22.5879L26.2207 23.3789L26.25 23.7598V24.9902L26.1914 25.6055L26.0742 26.3086L25.8691 27.0996L25.6348 27.7734L25.3711 28.3887L25.1367 28.8574L24.7852 29.4434L24.4629 29.9121L24.1699 30.293L23.8184 30.7031L23.6719 30.8789H23.6133V30.9375H23.5547L23.4961 31.0547L23.2617 31.2598L22.9395 31.5527L22.6465 31.7871L22.207 32.1094L21.6504 32.4609L21.0059 32.8125L20.4199 33.0762L19.8633 33.2812L19.1309 33.4863L18.3984 33.6328L17.7832 33.7207L17.4023 33.75H16.3184L15.6445 33.6914L14.8242 33.5449L14.0625 33.3398L13.3301 33.0762L12.5684 32.7246L11.8945 32.3438L11.3379 31.9629L10.9277 31.6406L10.6348 31.377L10.4004 31.1719L9.87305 30.6445L9.3457 30L8.96484 29.4434L8.73047 29.0625L8.37891 28.3887L8.11523 27.8027L7.82227 26.9238L7.67578 26.3379L7.5293 25.4297L7.4707 24.668V24.0234L7.5293 23.291L7.64648 22.5293L7.85156 21.709L8.14453 20.8594L8.4668 20.1562L8.78906 19.5703L9.11133 19.0723L9.43359 18.6328L9.81445 18.1641L9.90234 18.0469H9.96094L10.0195 17.9297L10.5176 17.4316L10.8398 17.168L11.1914 16.875L11.7773 16.4648L12.2168 16.2012L12.8906 15.8496L13.5645 15.5566L14.2969 15.3223L15.0293 15.1465L15.791 15.0293L16.5234 14.9707ZM15.8789 16.9336L15.0293 17.1094L14.2676 17.3438L13.6523 17.6074L13.0371 17.9297L12.5977 18.2227L12.1289 18.5742L11.7773 18.8965L11.4844 19.1602L11.0742 19.6289L10.7227 20.0977L10.3711 20.6543L10.0781 21.2109L9.84375 21.7676L9.60938 22.5293L9.46289 23.2617L9.375 24.1113V24.668L9.46289 25.4883L9.60938 26.2207L9.84375 26.9824L10.1367 27.6562L10.4297 28.2129L10.7227 28.6523L10.9863 29.0039L11.3086 29.3848L11.4258 29.5312H11.4844L11.543 29.6484L11.748 29.8535L12.0703 30.1172L12.4219 30.4102L12.9492 30.7617L13.6523 31.1426L14.209 31.377L14.8242 31.582L15.4395 31.7285L16.3477 31.8457H17.373L18.0762 31.7578L18.7793 31.6113L19.6582 31.3184L20.3027 31.0254L20.918 30.6738L21.2402 30.4395L21.6211 30.1465L21.9141 29.9121V29.8535L22.0312 29.7949L22.3828 29.4434V29.3848H22.4414L22.7051 29.0625L22.998 28.6816L23.3496 28.125L23.7012 27.4512L23.9941 26.6895L24.2285 25.752L24.2871 25.4297V25.3125L16.6992 25.2832L16.377 25.166L16.1426 24.9609L15.9668 24.6094L15.9375 24.3457L15.9082 16.9336H15.8789ZM17.8418 16.9629L17.8125 17.0508V23.4082H24.2871L24.2578 23.1738L24.1113 22.4707L23.9355 21.9141L23.7598 21.4453L23.4082 20.7129L23.0859 20.1855L22.7344 19.7168L22.4707 19.3945L22.2363 19.1602L22.0898 18.9844L21.8555 18.7793L21.5039 18.4863L21.0645 18.1641L20.4785 17.8125L20.0098 17.5781L19.541 17.373L18.9258 17.168L18.2812 17.0215L17.9883 16.9629H17.8418Z" fill="#00B4DD"/>
<path d="M49.6875 31.8457H57.0703L57.5098 31.9043L57.8027 32.0801L58.0078 32.3145L58.125 32.6074L58.1543 34.0723V35.7715L58.125 57.3926L57.9199 57.8027L57.7148 57.9785L57.4512 58.0957L57.2754 58.125H49.5117L49.1895 58.0078L48.9258 57.7734L48.75 57.4219L48.7207 57.1582V32.7539L48.7793 32.4902L48.8965 32.2559L49.043 32.0801L49.2773 31.9336L49.4531 31.875L49.6875 31.8457ZM50.6543 33.75L50.625 34.3066V56.2207L56.1328 56.25L56.2207 56.2207V33.75H50.6543Z" fill="#00B4DD"/>
<path d="M38.4082 37.4707H45.791L46.1719 37.5L46.5234 37.6758L46.7578 37.9395L46.8457 38.1152L46.875 38.2324V57.3926L46.7578 57.6562L46.6406 57.832L46.4355 58.0078L46.2012 58.0957L46.0254 58.125H38.2617L37.9395 58.0078L37.6758 57.7734L37.5 57.4219L37.4707 57.1582V38.3789L37.5293 38.1152L37.6465 37.8809L37.793 37.7344L38.0273 37.5586L38.1738 37.5L38.4082 37.4707ZM39.4043 39.375L39.375 39.9316V56.2207L44.8828 56.25L44.9707 56.2207V39.375H39.4043Z" fill="#00B4DD"/>
<path d="M49.6582 20.5957H55.2832L55.6348 20.6543L55.8691 20.7715L56.0742 20.9766L56.2207 21.2402L56.25 21.3867V27.3926L56.1328 27.6855L55.8691 27.9785L55.6055 28.0957L55.459 28.125H55.1367L54.8145 28.0078L54.5215 27.7441L54.4043 27.5098L54.3457 27.2168L54.3164 23.9062L44.6777 33.5449L44.4434 33.6914L44.2383 33.75H43.8574L43.5645 33.6328L43.2715 33.3691L40.3711 30.4688L40.2246 30.498L29.6777 41.0449L29.3555 41.2207L29.209 41.25H28.916L28.623 41.1621L28.3594 40.957L28.1836 40.6641L28.125 40.5176V40.0781L28.2422 39.8145L28.4473 39.5508L39.668 28.3301L39.9023 28.1836L40.2539 28.0957L40.6348 28.1543L40.9277 28.3301L41.3086 28.6816L41.9531 29.3262V29.3848L42.0703 29.4434V29.502L42.1875 29.5605V29.6191L42.3047 29.6777V29.7363L42.4219 29.7949V29.8535L42.5391 29.9121V29.9707L42.6562 30.0293L42.7734 30.1465V30.2051L42.8906 30.2637V30.3223H42.9492V30.3809L43.0664 30.4395L43.125 30.5566H43.1836V30.6152H43.2422V30.6738L43.3594 30.7324L43.5352 30.9082V30.9668L43.6523 31.0254L44.0332 31.4062L44.1504 31.3477L52.9102 22.5879H52.9688V22.5293L49.5117 22.5L49.1895 22.3828L48.9258 22.1484L48.75 21.7969V21.3281L48.8672 21.0352L49.043 20.8301L49.2773 20.6836L49.4531 20.625L49.6582 20.5957Z" fill="#00B4DD"/>
<path d="M27.1582 43.0957H34.5703L34.9219 43.125L35.2734 43.3008L35.5078 43.5645L35.5957 43.7402L35.625 43.8574V57.3926L35.5078 57.6562L35.3906 57.832L35.1855 58.0078L34.9512 58.0957L34.7754 58.125H27.0117L26.6895 58.0078L26.4258 57.7734L26.2793 57.5098L26.2207 57.1289V44.0039L26.2793 43.7402L26.3965 43.5059L26.543 43.3594L26.7773 43.1836L26.9238 43.125L27.1582 43.0957ZM28.1543 45L28.125 45.5566V56.2207L33.6328 56.25L33.7207 56.2207V45H28.1543Z" fill="#00B4DD"/>
<path d="M8.4082 37.4707H23.3203L23.6719 37.5L24.0234 37.6758L24.2578 37.9395L24.375 38.2031V38.6719L24.1992 39.0234L23.9355 39.2578L23.5547 39.375H8.26172L7.93945 39.2578L7.67578 39.0234L7.5 38.6719V38.2031L7.61719 37.9102L7.79297 37.7051L8.20312 37.5L8.4082 37.4707Z" fill="#00B4DD"/>
<path d="M30 20.5957H43.9453L44.2969 20.625L44.6484 20.8008L44.8828 21.0645L45 21.3281V21.7969L44.8242 22.1484L44.5605 22.3828L44.1797 22.5H29.8242L29.502 22.3828L29.2383 22.1484L29.0625 21.7969V21.3281L29.1797 21.0645L29.3555 20.8301L29.7656 20.625L30 20.5957Z" fill="#00B4DD"/>
<path d="M29.9707 14.9707H43.9453L44.3848 15.0293L44.6777 15.2051L44.8828 15.4395L44.9707 15.6152L45 15.7324V16.1719L44.8242 16.5234L44.5605 16.7578L44.1797 16.875H29.8242L29.502 16.7578L29.2383 16.5234L29.0625 16.1719V15.7031L29.1797 15.4102L29.3555 15.2051L29.7656 15L29.9707 14.9707Z" fill="#00B4DD"/>
<path d="M8.4082 43.0957H16.7578L17.1973 43.1543L17.4902 43.3301L17.6953 43.5645L17.8125 43.8574V44.2969L17.6367 44.6484L17.373 44.8828L17.1387 44.9707L16.9629 45H8.26172L7.93945 44.8828L7.67578 44.6484L7.5 44.2969V43.8281L7.61719 43.5352L7.79297 43.3301L8.20312 43.125L8.4082 43.0957Z" fill="#00B4DD"/>
<path d="M29.9707 26.2207H35.4785L35.9473 26.2793L36.2402 26.4551L36.4453 26.6895L36.5625 26.9531V27.4219L36.3867 27.7734L36.123 28.0078L35.918 28.0957L35.7422 28.125H29.8242L29.502 28.0078L29.2383 27.7734L29.0625 27.4219V26.9531L29.1797 26.6602L29.3262 26.4844L29.6191 26.3086L29.7656 26.25L29.9707 26.2207Z" fill="#00B4DD"/>
<path d="M8.37891 5.5957L8.75977 5.6543L8.99414 5.77148L9.22852 6.00586L9.3457 6.24023L9.375 6.32812V6.79688L9.19922 7.14844L8.93555 7.38281L8.73047 7.4707L8.58398 7.5H8.26172L7.93945 7.38281L7.67578 7.14844L7.5 6.79688V6.32812L7.61719 6.03516L7.79297 5.83008L8.08594 5.6543L8.37891 5.5957Z" fill="#00B4DD"/>
<path d="M19.6582 5.5957L20.0098 5.6543L20.2441 5.77148L20.4492 5.97656L20.625 6.32812V6.79688L20.4492 7.14844L20.1855 7.38281L19.9805 7.4707L19.834 7.5H19.5117L19.1895 7.38281L18.9258 7.14844L18.75 6.79688V6.32812L18.8672 6.03516L19.043 5.83008L19.3359 5.6543L19.6582 5.5957Z" fill="#00B4DD"/>
<path d="M13.8281 5.625H14.2969L14.5605 5.74219L14.7949 5.94727L14.9414 6.18164L15 6.32812V6.79688L14.8242 7.14844L14.5605 7.38281L14.3555 7.4707L14.209 7.5H13.8867L13.5645 7.38281L13.3008 7.14844L13.125 6.79688V6.32812L13.2422 6.03516L13.418 5.83008L13.7109 5.6543L13.8281 5.625Z" fill="#00B4DD"/>
</svg>
