<svg width="60" height="60" viewBox="0 0 60 60" fill="none" xmlns="http://www.w3.org/2000/svg">
<g clip-path="url(#clip0_314_149)">
<path d="M5.41992 0H54.6973L54.8145 0.0585938L55.5469 0.234375L56.1328 0.439453L56.748 0.732422L57.2168 1.02539L57.627 1.34766L58.0078 1.66992L58.2422 1.875L58.5059 2.19727L58.8281 2.57812L59.1211 3.01758L59.4727 3.69141L59.6484 4.13086L59.8242 4.6875L59.9414 5.18555L60 5.21484V54.7266L59.9414 54.7559L59.8242 55.2832L59.6484 55.8691L59.4727 56.3086L59.1797 56.8945L58.9453 57.2461L58.7402 57.5098L58.5938 57.7148H58.5352L58.4766 57.832L58.125 58.2422L57.8027 58.5059L57.334 58.8867L57.0117 59.0918L56.543 59.3555L55.957 59.6191L55.4004 59.7949L54.5215 60H5.44922L4.98047 59.8828L4.30664 59.707L3.83789 59.5312L3.16406 59.209L2.8418 59.0039L2.46094 58.7109L1.96289 58.3008L1.64062 57.9785L1.37695 57.6562L1.02539 57.2168L0.761719 56.7773L0.527344 56.3086L0.292969 55.7227L0.0878906 54.9609L0 54.5508V5.39062L0.0585938 5.21484L0.234375 4.45312L0.439453 3.86719L0.732422 3.25195L1.05469 2.72461L1.37695 2.34375L1.64062 2.02148L1.93359 1.69922L2.25586 1.43555L2.72461 1.05469L3.31055 0.703125L3.92578 0.410156L4.54102 0.205078L5.12695 0.0585938L5.41992 0ZM13.2715 2.49023L5.97656 2.51953L5.36133 2.60742L4.74609 2.8125L4.30664 3.04688L3.98438 3.28125L3.57422 3.63281L3.25195 4.01367L3.04688 4.33594L2.8125 4.77539L2.60742 5.39062L2.54883 5.74219L2.51953 6.06445V53.9355L2.57812 54.4922L2.75391 55.0781L2.98828 55.5762L3.19336 55.8984L3.42773 56.1914L3.66211 56.4551L3.98438 56.7188L4.27734 56.9238L4.83398 57.2168L5.39062 57.3926L6.15234 57.4805L12.5391 57.5098H42.7734L53.8184 57.4805L54.5801 57.3926L55.1953 57.1875L55.8105 56.8652L56.2793 56.4844L56.4258 56.3379L56.7188 56.0156L56.9238 55.7227L57.1875 55.2246L57.3926 54.5801L57.4805 53.8477V6.24023L57.4219 5.56641L57.2754 5.00977L57.0703 4.54102L56.8359 4.13086L56.4551 3.66211L56.1035 3.33984L55.6934 3.04688L55.2539 2.8125L54.6387 2.60742L54.3164 2.54883L53.9648 2.51953L49.7754 2.49023H13.2715Z" fill="#00B4DD"/>
<path d="M29.6777 5.06836H30.293L30.6445 5.21484L30.9082 5.39062L31.1719 5.74219L36.1523 15.7031L36.2402 15.9668L36.2695 16.1426L36.2988 37.7344L36.3867 38.0859L36.5625 38.3496L36.8262 38.5547L37.1484 38.6719L37.2949 38.7012H43.8867L44.0039 38.4082L44.1504 37.9688L44.5312 37.2656L44.8242 36.8848L45.1758 36.4746L45.498 36.1816L45.9082 35.8594L46.3477 35.5957L46.8164 35.3613L47.5195 35.127L47.7246 35.0684L48.5742 34.9805H48.8965L49.7461 35.0684L50.3613 35.2441L50.8008 35.4199L51.3574 35.7129L51.7383 35.9766L52.1484 36.3281L52.3828 36.5332L52.6465 36.8555L52.9395 37.2363L53.2031 37.7051L53.4375 38.2031L53.6426 38.877L53.7305 39.4922L53.7598 39.7852V40.2246L53.6719 40.9863L53.4668 41.6895L53.3203 42.0703L52.9688 42.7148L52.7051 43.0664L52.3828 43.4473L52.0898 43.7402L51.7969 43.9746L51.416 44.2383L50.8301 44.5605L50.3613 44.7363L49.6875 44.9121L48.9551 45H48.4863L47.7246 44.9121L46.9336 44.6777L46.4648 44.4434L45.9668 44.1797L45.4688 43.7695L45.1758 43.5059L44.8828 43.1836L44.5898 42.8027L44.2383 42.1875L44.0918 41.8652L43.916 41.3379V41.25H37.2363L36.6504 41.1914L36.0645 41.0156L35.5664 40.7812L35.1855 40.5176L34.834 40.1953L34.541 39.9023L34.2773 39.5215L34.0723 39.1699L33.8672 38.6133L33.7793 38.1738L33.7207 37.5879L33.6914 16.875L33.3984 17.168H33.3398V17.2266H33.2812V17.2852L33.0469 17.4902L32.7832 17.7539L32.3438 18.0469L31.8457 18.3398L31.377 18.5156H31.2891V45.1465L31.9043 45.3516L32.373 45.5859L32.7832 45.8203L33.252 46.2012L33.5449 46.4648L33.75 46.6699L34.0723 47.0801L34.3359 47.4902L34.6289 48.0469L34.8926 48.8672L34.9805 49.4824L35.0098 49.7461V50.2734L34.8926 51.123L34.6875 51.7969L34.4238 52.3535L34.1309 52.8516L33.7793 53.2617L33.5156 53.584L33.1348 53.9062L32.6953 54.2285L31.9629 54.6094L31.3477 54.8145L30.8496 54.9316L30.0586 55.0195L29.6484 54.9902L28.916 54.9023L27.9492 54.5801L27.2461 54.1992L26.7773 53.8184L26.4844 53.5547L26.25 53.3203L25.9863 52.998L25.7812 52.7051L25.4883 52.1777L25.2832 51.709L25.1074 51.123L25.0488 50.8594L24.9902 50.332V49.6875L25.0781 48.9844L25.2246 48.4863L25.3711 48.0469L25.6055 47.5781L25.8984 47.1094L26.1914 46.7285H26.25L26.3086 46.6113L26.5137 46.377L26.8359 46.1133L27.2461 45.791L27.9492 45.4102L28.3301 45.2637L28.7109 45.1758V18.5742L28.4473 18.457L27.9785 18.252L27.4219 17.9004L27.041 17.5781L26.748 17.2852L26.5137 17.0801L26.2793 16.8457V32.9004L26.25 37.8809L26.1914 38.3496L26.0156 38.9648L25.7227 39.5215L25.4297 39.9316L25.1367 40.2539L24.8145 40.5176L24.5508 40.6934L24.1992 40.8984L23.6426 41.1035L23.0859 41.2207L22.793 41.25H16.084L15.9961 41.6016L15.8203 42.0703L15.4688 42.7148L15.2051 43.0664L14.8828 43.4473L14.5898 43.7402L14.2969 43.9746L13.916 44.2383L13.3301 44.5605L12.8613 44.7363L12.1875 44.9121L11.4551 45H11.0156L10.2246 44.9121L9.43359 44.6777L8.96484 44.4434L8.4668 44.1797L7.96875 43.7695L7.67578 43.5059L7.38281 43.1836L7.08984 42.8027L6.73828 42.1875L6.5332 41.7188L6.32812 41.0156L6.24023 40.3125V39.6973L6.32812 38.9941L6.5625 38.2031L6.70898 37.8516L7.08984 37.1777L7.35352 36.8555L7.70508 36.4453L7.99805 36.1816L8.4082 35.8594L8.84766 35.5957L9.31641 35.3613L10.0195 35.127L10.2246 35.0684L11.0742 34.9805H11.3965L12.2461 35.0684L12.8613 35.2441L13.3008 35.4199L13.8574 35.7129L14.2383 35.9766L14.6484 36.3281L14.8828 36.5332L15.1465 36.8555L15.4395 37.2363L15.7031 37.7051L15.9375 38.2031L16.084 38.6719V38.7305L22.6172 38.7012L22.9688 38.6426L23.2617 38.4961L23.4375 38.3496L23.6133 38.0566L23.7012 37.7344V19.3652L23.7305 16.084L23.8477 15.7031L24.082 15.2051L24.3457 14.707L24.6387 14.0918L24.9316 13.5352L25.2246 12.9199L25.5176 12.3633L25.8105 11.748L26.1035 11.1914L26.4258 10.5176L26.6895 10.0195L27.0117 9.3457L28.6523 6.06445L28.8574 5.68359L29.1211 5.36133L29.3848 5.18555L29.6777 5.06836ZM29.0625 11.25L28.8574 11.3086L28.5352 11.9824L27.334 14.3848V14.4727L27.6562 14.6777L27.9492 14.9414L28.1836 15.1758L28.418 15.3809L28.7988 15.7617L29.1211 15.9961L29.4141 16.1426L29.6191 16.2012L30.0879 16.2305L30.4688 16.1719L30.8203 16.0254L31.1719 15.7617L31.5527 15.4102L31.9629 15L32.0508 14.9414V14.8828L32.168 14.8242L32.4023 14.6191L32.666 14.4727L32.6367 14.3262L31.1133 11.2793L31.0254 11.25H29.0625ZM10.9277 37.5293L10.4883 37.6172L10.0195 37.8223L9.69727 38.0566L9.4043 38.3203L9.14062 38.6719L8.93555 39.082L8.81836 39.4629L8.75977 39.8438V40.1367L8.81836 40.5469L8.96484 40.9863L9.19922 41.4258L9.46289 41.7188L9.60938 41.8652L9.96094 42.1289L10.3125 42.3047L10.6934 42.4219L11.3086 42.4805L11.7773 42.4219L12.2461 42.2754L12.7148 42.0117L13.1543 41.6016L13.3594 41.3086L13.5938 40.8398L13.6816 40.5469L13.7402 39.9609L13.6523 39.3457L13.4766 38.877L13.3008 38.584L13.0664 38.291L12.8613 38.0859L12.5684 37.8809L12.1582 37.6758L11.7773 37.5586L11.5723 37.5293H10.9277ZM48.4277 37.5293L47.9883 37.6172L47.5195 37.8223L47.1973 38.0566L46.9043 38.3203L46.6406 38.6719L46.4355 39.082L46.3184 39.4629L46.2598 39.8438V40.1367L46.3184 40.5469L46.4648 40.9863L46.6992 41.4258L46.9629 41.7188L47.1094 41.8652L47.4609 42.1289L47.8125 42.3047L48.1934 42.4219L48.8086 42.4805L49.2773 42.4219L49.7461 42.2754L50.2148 42.0117L50.6543 41.6016L50.8594 41.3086L51.0938 40.8398L51.1816 40.5469L51.2402 40.0195L51.1816 39.4629L51.0352 39.0234L50.8301 38.6133L50.5664 38.291L50.3613 38.0859L50.0684 37.8809L49.6582 37.6758L49.2773 37.5586L49.0723 37.5293H48.4277ZM29.7656 47.5195L29.3848 47.5781L28.9746 47.7246L28.5938 47.9297L28.2422 48.2227V48.2812H28.1836L27.8906 48.6621L27.6562 49.1602L27.5391 49.5996L27.5098 49.8633V50.1562L27.5684 50.5371L27.6855 50.918L27.8906 51.3281L28.1836 51.709L28.4766 51.9727L28.8574 52.207L29.209 52.3535L29.7363 52.4707H30.2344L30.5859 52.4121L31.0547 52.2363L31.377 52.0605L31.6699 51.8262L31.8164 51.6797L32.0508 51.416L32.3145 50.918L32.4316 50.5371L32.4902 49.9219L32.4023 49.3652L32.2852 49.0137L32.0508 48.5742L31.7871 48.252L31.5234 48.0176L31.2012 47.8125L30.8789 47.666L30.4688 47.5488L30.2051 47.5195H29.7656Z" fill="#00B4DD"/>
<path d="M38.7305 9.99023H54.9902L55.0195 10.0195V12.4512L54.9609 12.5098H38.7598L38.7305 12.4805V9.99023Z" fill="#00B4DD"/>
<path d="M4.98047 9.99023H21.2402L21.2695 10.0195V12.4512L21.2109 12.5098H5.00977L4.98047 12.4805V9.99023Z" fill="#00B4DD"/>
<path d="M7.41211 16.2305H12.4512L12.5098 16.2598V18.7207L12.4805 18.75H8.75977V22.4707L8.73047 22.5H6.24023V17.3438L6.35742 16.9629L6.5625 16.6406L6.85547 16.4062L7.20703 16.2598L7.41211 16.2305Z" fill="#00B4DD"/>
<path d="M11.25 4.98047H13.7109L13.7695 5.00977V7.4707L13.7402 7.5H11.25L11.2207 7.41211V5.00977L11.25 4.98047Z" fill="#00B4DD"/>
<path d="M51.2402 4.98047H53.7012L53.7598 5.00977V7.4707L53.7305 7.5H51.2402L51.2109 5.03906L51.2402 4.98047Z" fill="#00B4DD"/>
<path d="M6.24023 4.98047H8.70117L8.75977 5.00977V7.4707L8.73047 7.5H6.24023L6.21094 5.06836L6.24023 4.98047Z" fill="#00B4DD"/>
</g>
<defs>
<clipPath id="clip0_314_149">
<rect width="60" height="60" fill="white"/>
</clipPath>
</defs>
</svg>
