<svg width="60" height="60" viewBox="0 0 60 60" fill="none" xmlns="http://www.w3.org/2000/svg">
<g clip-path="url(#clip0_314_318)">
<path d="M20.9473 0H59.209V0.0585938L59.3848 0.117188L59.6191 0.292969L59.8828 0.585938L60 0.820312V29.707L59.9121 29.7949L59.707 30.0879L59.4727 30.293L59.2383 30.4102L58.9453 30.4688H39.873V38.291L40.1367 38.3789L41.1328 38.8184L41.25 38.7891L41.748 38.4375L42.3926 38.0566L42.8906 37.793L43.2422 37.6465L43.3008 37.5879L43.5645 35.3027L43.6523 34.9219L43.8281 34.6289L44.0332 34.4238L44.4434 34.2188L44.5898 34.1895H50.0977L50.4492 34.2773L50.7715 34.4824L50.9766 34.7168L51.0938 34.9512L51.1816 35.332L51.416 37.4707L51.4453 37.6465L51.709 37.7344L52.5586 38.1738L53.2031 38.584L53.5254 38.8184L53.6719 38.7891L54.1113 38.584L54.9902 38.2031L55.7227 37.8809L56.0742 37.793H56.3965L56.6895 37.8809L56.9824 38.0566L57.2168 38.3203L57.4805 38.7598L57.7441 39.2285L58.1543 39.9316L58.623 40.752L59.0332 41.4551L59.2676 41.8652L59.8828 42.9199L60 43.1543V43.916L59.9121 44.0039L59.7363 44.2676L59.4141 44.5605L59.0039 44.8535L58.4473 45.2637L57.9785 45.6152L57.6855 45.8203H57.627L57.6562 46.2598V47.9004L57.627 48.3105L57.7441 48.4277L58.1543 48.7207L58.7109 49.1309L59.5312 49.7461L59.6777 49.8926L59.8828 50.127L60 50.3906V51.123H59.9414L59.7363 51.5332L59.3848 52.1484L58.9746 52.8516L58.5059 53.6719L58.0664 54.4336L57.2461 55.8398L56.9824 56.1328L56.8359 56.25L56.543 56.3672L56.3965 56.3965H56.0156L55.5762 56.25L54.9902 55.9863L53.7891 55.459L53.5254 55.3711L53.0859 55.6934L52.5 56.0449L51.9141 56.3672L51.5039 56.543H51.4453L51.2695 58.0957L51.1523 59.0332L51.0645 59.3262L50.8594 59.6191L50.625 59.8242L50.2734 60H44.4434L44.0332 59.7656L43.7988 59.5312L43.623 59.1797L43.5352 58.6523L43.3008 56.6016L42.832 56.3672L42.1289 55.9863L41.4844 55.5762L41.1914 55.3711L40.4883 55.6641L39.2871 56.1914L38.8184 56.3672L38.6719 56.3965H38.291L37.9688 56.2793L37.7344 56.1035L37.5 55.8398L37.207 55.3418L35.0098 51.5332L34.7754 51.0645L34.7168 50.8594V50.5664L34.834 50.1855L35.0391 49.8926L35.3027 49.6582L35.7129 49.3652L36.1816 49.0137L36.709 48.6328L37.0898 48.3691V48.0176L37.0605 47.6953V46.4941L37.0898 46.1426V45.8496L36.709 45.5566L36.2988 45.2637L0.996094 45.2344L0.615234 45.1172L0.351562 44.9121L0.146484 44.6777L0 44.3848V15.5859L0.205078 15.2344L0.380859 15.0293L0.791016 14.7949L1.11328 14.7363H20.127V1.11328L20.2148 0.703125L20.4199 0.380859L20.6543 0.175781L20.9473 0ZM22.5293 2.34375L22.5 2.7832V28.0957L57.5684 28.125L57.627 28.0957V2.34375H22.5293ZM2.37305 17.1094L2.34375 17.8125V35.5957H2.43164L6.26953 31.7578L6.65039 31.4648L7.06055 31.2305L7.44141 31.0547L8.05664 30.9082L8.26172 30.8789H8.99414L9.49219 30.9668L10.0195 31.1426L10.5176 31.4062L10.8691 31.6699L11.2207 31.9922L14.0039 34.7754L14.1211 34.834L20.127 28.8281V17.1094H2.37305ZM21.8555 30.4688L21.6211 30.6738L14.9414 37.3535L14.6484 37.5586L14.2969 37.6758H13.8574L13.5352 37.5586L13.2715 37.3535L9.46289 33.5449L9.16992 33.3398L8.96484 33.252L8.81836 33.2227H8.4375L8.14453 33.3105L7.88086 33.4863L3.7793 37.5879L3.60352 37.7344L3.42773 37.9395L3.19336 38.1445V38.2031L3.07617 38.2617V38.3203L2.98828 38.3496L2.8418 38.5254L2.60742 38.7305L2.37305 38.9941L2.34375 39.873V42.8613L2.49023 42.8906L34.9219 42.8613L35.1562 42.4512L35.4492 41.9531L35.8887 41.1914L36.2402 40.5762L36.6797 39.8145L36.7969 39.6094V39.4922L36.5625 39.2871L36.0059 38.7305L35.8594 38.5547L35.6543 38.3789L34.834 37.5586L34.6875 37.3828L34.5117 37.2363L34.3359 37.0312L34.1309 36.8555L33.9844 36.6797L33.7793 36.5039L33.6328 36.3281H33.5742L33.5156 36.2109H33.457L33.3984 36.0938H33.3398L33.2812 35.9766L33.0762 35.8008L32.9297 35.625L32.7539 35.4785L32.5781 35.2734L32.373 35.0977L32.2266 34.9219L31.9922 34.7168L31.5527 34.2773L31.4062 34.1016L31.2891 33.9844H31.2305L31.1719 33.8672H31.1133L31.0547 33.75L30.8496 33.5742L30.7031 33.3984L30.498 33.2227L30.4688 33.1641H30.4102L30.3516 33.0469H30.293L30.2344 32.9297L29.2969 31.9922H29.2383L29.1797 31.875H29.1211L29.0625 31.7578H29.0039L28.9453 31.6406H28.8867L28.8281 31.5234H28.7695L28.7109 31.4062L28.5938 31.2891H28.5352L28.4766 31.1719L28.2422 30.9668L27.8027 30.5273L27.7148 30.4688H21.8555ZM31.1133 30.4688L31.1719 30.5859L31.4062 30.791L37.4414 36.8262H37.4707V30.4688H31.1133ZM45.8203 36.5625L45.6445 38.1152L45.5566 38.7305L45.4102 39.1113L45.1758 39.375L44.707 39.6094L44.2676 39.7852L43.8281 39.9902L43.3301 40.2539L43.0078 40.459L42.5098 40.8105L42.2754 41.0156L41.9824 41.2207L41.748 41.3379L41.5137 41.3965H41.25L40.8398 41.2793L39.9902 40.8984L39.082 40.5176H38.9941L38.584 41.2207L38.1152 42.041L37.6758 42.8027L37.5 43.0957V43.2129L37.8809 43.4766L38.3789 43.8574L38.7891 44.1504L39.1699 44.4434L39.4043 44.707L39.5508 45L39.5801 45.1465V45.498L39.4629 46.3184L39.4336 46.7871V47.4023L39.4922 48.1348L39.5801 48.7207V49.043L39.4922 49.3359L39.2871 49.6582L39.0527 49.8633L38.7305 50.0977L38.1738 50.5078L37.6465 50.8887L37.5 50.9766L37.5293 51.1523L38.4082 52.6758L38.877 53.4961L38.9941 53.6719L39.1699 53.6426L40.0488 53.2617L40.8398 52.9102L41.1328 52.8223L41.3965 52.793L41.8066 52.8809L42.0703 53.0273L42.5391 53.4082L42.9492 53.7012L43.4766 54.0234L43.9746 54.2871L44.9707 54.6973L45.2051 54.873L45.4395 55.1367L45.5566 55.459L45.6738 56.3672L45.8203 57.627H48.8965L48.9551 57.334L49.1602 55.5469L49.248 55.2539L49.4238 54.9609L49.6582 54.7559L50.0977 54.5508L50.5371 54.375L51.2109 54.0527L51.7383 53.7305L52.1484 53.4375L52.7344 52.9688L53.1152 52.8223L53.2617 52.793H53.4668L53.8184 52.8809L55.0781 53.4375L55.6934 53.7012L55.8105 53.584L56.25 52.8223L56.7188 52.002L57.1289 51.2988L57.2754 51.0352L56.748 50.625L56.3379 50.332L55.5176 49.7168L55.3125 49.4531L55.1953 49.2188L55.166 49.1016V48.6328L55.2832 47.7246V46.4941L55.1953 45.7617L55.166 45.5859V45.1172L55.2832 44.7949L55.4004 44.6191L55.5176 44.4727L55.8984 44.1797L56.2207 43.9453L56.7773 43.5352L57.2461 43.1836L57.1289 42.8906L56.7188 42.1875L56.2793 41.4258L55.8691 40.7227L55.752 40.5176L55.5762 40.5469L54.375 41.0742L53.8184 41.3086L53.4961 41.3965H53.2324L52.8516 41.2793L52.5879 41.1035L52.1191 40.7227L51.5918 40.3711L51.0938 40.0781L50.4199 39.7559L49.834 39.5215L49.541 39.3457L49.3359 39.1113L49.1895 38.7891L49.0723 37.9102L48.9258 36.5918L48.8965 36.5625H45.8203Z" fill="#00B4DD"/>
<path d="M37.3535 8.75977H37.6172L38.0859 8.81836L38.6133 8.99414L39.375 9.4043L39.873 9.69727L43.6816 11.8945L44.502 12.3633L45.293 12.832L45.6152 13.0664L45.9668 13.3887L46.2012 13.7109L46.4355 14.1504L46.582 14.6191L46.6406 15V15.4688L46.5527 15.9668L46.377 16.4355L46.1426 16.8457L45.8203 17.2266L45.5566 17.4609L45.1758 17.6953L44.6777 17.9883L43.916 18.4277L43.3008 18.7793L41.7773 19.6582L41.0742 20.0684L40.4004 20.4492L39.6973 20.8594L39.082 21.2109L38.584 21.4746L38.1445 21.6211L37.793 21.6797H37.1484L36.6211 21.5625L36.1523 21.3574L35.8008 21.123L35.5078 20.8594L35.2734 20.625L35.0098 20.2148L34.834 19.834L34.7168 19.3652L34.6875 19.1309V11.2793L34.7754 10.8105L34.9512 10.3418L35.1855 9.96094L35.4199 9.66797L35.6836 9.4043L36.0645 9.14062L36.5625 8.90625L37.0312 8.78906L37.3535 8.75977ZM37.3828 11.1328L37.1484 11.2793L37.0605 11.5137V18.9551L37.1484 19.1602L37.3535 19.3066H37.5879L38.0566 19.0723L38.7598 18.6621L42.5684 16.4648L43.2715 16.0547L44.0332 15.6152L44.209 15.4688L44.2676 15.3223L44.2383 15.0586L44.0625 14.8535L43.3887 14.4727L42.6855 14.0625L41.1621 13.1836L40.3418 12.7148L39.6387 12.3047L38.877 11.8652L38.0566 11.3965L37.7051 11.1914L37.3828 11.1328Z" fill="#00B4DD"/>
<path d="M46.9922 42.6562H47.7246L48.3398 42.7441L48.9258 42.9199L49.6582 43.2715L50.0684 43.5645L50.4785 43.916L50.6836 44.1211L51.0645 44.6191L51.3281 45.0586L51.5625 45.5859L51.7383 46.2012L51.7969 46.6113V47.6074L51.709 48.1055L51.5332 48.6914L51.3281 49.1602L51.0352 49.6289L50.7422 50.0098L50.625 50.1562L50.3906 50.3613L50.0977 50.625L49.6582 50.918L49.1602 51.1816L48.457 51.416L47.8125 51.5332H46.875L46.2891 51.416L45.8203 51.2695L45.3516 51.0645L44.9414 50.8301L44.5898 50.5664L44.2969 50.3027L44.0039 50.0098L43.7695 49.7168L43.5059 49.3066L43.2715 48.8379L43.0957 48.3691L42.9492 47.6953L42.9199 47.4902V46.7578L43.0371 46.0547L43.1836 45.5859L43.3301 45.2344L43.5938 44.7363L43.9746 44.209L44.1797 43.9746L44.4141 43.7695L44.7656 43.4766L45.293 43.1543L45.7324 42.9492L46.1719 42.8027L46.7285 42.6855L46.9922 42.6562ZM47.168 45.0293L46.7285 45.1172L46.377 45.2637L46.084 45.4688L45.8203 45.7031L45.5566 46.084L45.3809 46.4941L45.293 46.9629V47.2266L45.3516 47.6367L45.498 48.0176L45.7031 48.3398L45.9668 48.6328L46.2305 48.8379L46.6992 49.0723L47.1094 49.1602H47.6367L48.1055 49.043L48.5449 48.8086L48.8379 48.5742L49.1016 48.252L49.3359 47.7832L49.4238 47.4023V46.7871L49.3066 46.3477L49.1016 45.9375L48.8672 45.6445L48.6328 45.4395L48.252 45.2051L47.7832 45.0586L47.5488 45.0293H47.168Z" fill="#00B4DD"/>
<path d="M10.8984 20.2734H11.6016L12.1582 20.3613L12.6855 20.5371L13.1543 20.7715L13.4766 20.9766L13.7988 21.2402L14.1797 21.6211L14.502 22.0605L14.7656 22.5586L14.9707 23.1738L15.0586 23.6426L15.0879 23.9648V24.2285L15.0293 24.7266L14.9121 25.2246L14.7363 25.6934L14.4727 26.1621L14.1797 26.5723L13.7402 27.0117L13.3887 27.2754L12.9199 27.5391L12.4805 27.7148L11.9531 27.8613L11.4551 27.9199H10.9863L10.3711 27.832L9.75586 27.627L9.19922 27.334L8.84766 27.0703L8.55469 26.8066L8.32031 26.5723L7.96875 26.0742L7.70508 25.5762L7.5293 25.0488L7.44141 24.6094L7.41211 24.375V23.8477L7.5 23.2617L7.67578 22.7051L7.91016 22.207L8.20312 21.7676L8.55469 21.3574L8.84766 21.0938L9.375 20.7422L9.87305 20.5078L10.3418 20.3613L10.8984 20.2734ZM11.0742 22.6465L10.7227 22.7344L10.4004 22.9102L10.1367 23.1445L9.96094 23.4082L9.84375 23.7012L9.81445 23.8477V24.375L9.96094 24.7852L10.2539 25.166L10.5469 25.3711L10.8398 25.4883L11.1621 25.5469L11.543 25.5176L11.8945 25.4004L12.1875 25.1953L12.334 25.0488L12.5391 24.7852L12.6562 24.4629L12.6855 24.3164V23.8477L12.5977 23.5547L12.4512 23.2617L12.1875 22.9688L11.8945 22.793L11.6016 22.6758L11.3965 22.6465H11.0742Z" fill="#00B4DD"/>
</g>
<defs>
<clipPath id="clip0_314_318">
<rect width="60" height="60" fill="white"/>
</clipPath>
</defs>
</svg>
