<svg width="60" height="60" viewBox="0 0 60 60" fill="none" xmlns="http://www.w3.org/2000/svg">
<g clip-path="url(#clip0_123_210)">
<path d="M29.6191 0.908203H30.4102L31.4648 0.966797L32.6367 1.08398L33.7207 1.25977L34.5703 1.43555L35.5371 1.69922L36.5918 2.05078L37.3828 2.34375L38.1152 2.66602L38.8477 3.01758L39.5801 3.39844L40.4004 3.89648L40.957 4.24805L41.4844 4.62891L41.8945 4.92188L42.1875 5.15625L42.3047 5.24414L42.4805 5.21484L43.2422 4.92188L44.502 4.51172L45.6152 4.21875L46.5527 4.01367L47.4609 3.86719L48.5156 3.75L48.6328 3.60352L48.8379 3.28125L49.0723 2.98828L49.4238 2.57812L49.5703 2.43164H49.6289V2.37305L49.9512 2.10938L50.3613 1.81641L50.8008 1.55273L51.2988 1.31836L52.002 1.08398L52.5879 0.966797L53.2031 0.908203H53.6426L54.2871 0.966797L54.9609 1.11328L55.6934 1.37695L56.3672 1.72852L56.8652 2.08008L57.2461 2.40234L57.4219 2.54883L57.627 2.7832L57.9492 3.16406L58.1543 3.45703L58.4766 4.01367L58.7109 4.54102L58.8867 5.06836L59.0332 5.77148L59.0625 6.03516V7.08984L58.9746 7.67578L58.7988 8.34961L58.5645 8.93555L58.3008 9.43359L58.0664 9.78516L57.7734 10.166L57.4512 10.5176L57.1582 10.8105L56.6602 11.1914L56.2793 11.4258L56.2207 11.8066L56.0742 12.8906L55.9277 13.6816L55.752 14.4727L55.4883 15.4395L55.1367 16.5527L54.7852 17.5195L54.3457 18.6035L53.9941 19.3945L53.7305 19.9805L53.3789 20.7129L52.9688 21.5332L52.6758 22.0898L52.2363 22.8809L51.9727 23.3496L51.7383 23.7598L51.2988 24.4922L50.8887 25.166L50.4199 25.8984L49.5703 27.1875L49.248 27.6562L48.8379 28.2422L48.4863 28.7402L48.252 29.0625L47.8418 29.6191L47.6074 29.9414L47.6367 30.0879L47.9883 30.5859L48.3398 31.0547L48.6914 31.5527L49.1602 32.2266L49.541 32.7832L49.6289 32.9004L49.9805 32.8418L50.5078 32.7832L51.123 32.8125L51.5918 32.9004L52.1484 33.1055L52.6465 33.3691L52.998 33.6328L53.291 33.8965L53.4961 34.1016L53.7891 34.5117L54.0234 34.9219L54.1992 35.332L54.3457 35.918L54.375 36.123V37.002L54.2578 37.5879L54.082 38.0566L53.877 38.4668L53.6426 38.8184L53.4082 39.1113H53.3496L53.3789 39.2871L53.7891 40.1367L54.3164 41.3379L54.6094 42.041L55.0195 43.125L55.4004 44.2383L55.752 45.498L55.9863 46.5527L56.1621 47.6367L56.25 48.5156V50.127L56.1621 50.8301L56.0742 51.3281L55.8984 52.002L55.6641 52.6172L55.4297 53.1152L55.1367 53.584L54.9023 53.9062L54.5508 54.3164L54.1992 54.668L53.7891 54.9902L53.3496 55.2832L52.8516 55.5469L52.1777 55.8105L51.5625 55.9863L50.8301 56.1328L50.127 56.2207L49.5703 56.25H48.9551L48.0176 56.1914L46.9629 56.0449L46.0547 55.8691L44.8828 55.5762L43.7402 55.2246L42.8906 54.9316L41.8359 54.5215L40.8105 54.082L39.7852 53.6133L39.2871 53.3789L38.7305 53.0859L37.793 52.6172L37.4707 52.4707L37.4121 52.8223L37.2656 53.4961L36.9727 54.375L36.7676 54.8145L36.5332 55.2832L36.2695 55.6934L35.918 56.1914L35.5664 56.6016L34.9219 57.2461L34.4238 57.627L34.043 57.8906L33.5449 58.1836L32.8125 58.5352L32.0215 58.7988L31.377 58.9453L30.8203 59.0332L30.4395 59.0625H29.502L28.9453 59.0039L28.3008 58.8867L27.6855 58.7109L27.1875 58.5352L26.6016 58.2715L26.0742 57.9785L25.4883 57.5684L25.166 57.3047L24.8145 56.9824L24.6387 56.8359L24.4336 56.6016L24.1992 56.3379L23.9062 55.957L23.6133 55.5176L23.2617 54.9023L22.998 54.3164L22.7344 53.5254L22.5293 52.5293L22.2949 52.5586L21.416 52.998L20.8594 53.291L19.834 53.7891L18.9258 54.1992L17.9297 54.6094L16.9336 54.9902L15.8789 55.3418L14.8828 55.6348L13.7695 55.8984L12.627 56.1035L11.4551 56.25L11.25 56.5723L11.0156 56.8945L10.6934 57.2754L10.2832 57.6855L9.78516 58.0664L9.375 58.3301L8.64258 58.6816L8.02734 58.8867L7.29492 59.0332L7.00195 59.0625H6.12305L5.44922 58.9746L4.80469 58.7988L4.33594 58.623L3.86719 58.3887L3.45703 58.1543L2.95898 57.7734L2.57812 57.4219L2.34375 57.1875L2.08008 56.8652L1.75781 56.3965L1.49414 55.9277L1.25977 55.4004L1.08398 54.8145L0.966797 54.2578L0.908203 53.6133V53.2324L0.966797 52.5879L1.11328 51.9141L1.28906 51.3867L1.64062 50.6543L1.96289 50.1562L2.19727 49.8633L2.54883 49.4531L2.92969 49.1016L3.31055 48.8086L3.69141 48.5742H3.75L3.86719 47.4609L4.04297 46.4355L4.30664 45.2637L4.59961 44.2383L4.95117 43.1836L5.33203 42.1582L5.83008 40.957L6.35742 39.8145L6.62109 39.2578L6.88477 38.7598L7.11914 38.291L7.44141 37.7051L7.61719 37.3535L8.32031 36.123L8.58398 35.6836L9.08203 34.8633L9.4043 34.3652L9.66797 33.9551L9.87305 33.6328L10.166 33.1934L10.7227 32.373L11.7773 30.8789L12.041 30.5273L12.4512 29.9707L12.5098 29.8828L12.4805 29.6777L12.1289 28.9746L11.8066 28.2422L11.4551 27.334L11.2793 26.8066V26.7188L10.9863 26.8359L10.6348 26.9824L10.1074 27.1289L9.69727 27.1875H8.96484L8.4668 27.0996L7.93945 26.9238L7.4707 26.6895L7.11914 26.4551L6.73828 26.1328L6.41602 25.7812L6.21094 25.4883L5.97656 25.0781L5.77148 24.5801L5.6543 24.1113L5.5957 23.6133V23.291L5.6543 22.7637L5.80078 22.207L6.00586 21.7383L6.24023 21.3281L6.5625 20.918L6.65039 20.8008L6.41602 20.2734L6.03516 19.4824L5.47852 18.1934L5.00977 16.9922L4.6582 15.9668L4.30664 14.7656L4.01367 13.5059L3.83789 12.4219L3.75 11.6016L3.7207 11.2207V10.1367L3.7793 9.46289L3.89648 8.75977L4.04297 8.17383L4.24805 7.55859L4.48242 7.03125L4.80469 6.47461L5.15625 6.00586L5.39062 5.71289H5.44922L5.50781 5.5957L5.71289 5.39062L6.03516 5.12695L6.35742 4.89258L6.73828 4.6582L7.23633 4.39453L7.93945 4.13086L8.61328 3.95508L9.25781 3.83789L9.78516 3.7793L10.3711 3.75H10.9277L11.8652 3.80859L12.8027 3.92578L13.916 4.13086L15.0879 4.42383L16.084 4.7168L16.9336 5.00977L17.5781 5.24414L17.7246 5.21484L18.1641 4.86328L18.6914 4.48242L19.4824 3.95508L20.0684 3.60352L20.625 3.28125L21.5918 2.7832L22.5879 2.34375L23.4375 2.02148L24.4336 1.69922L25.3418 1.46484L26.1328 1.28906L26.9531 1.14258L27.832 1.02539L28.9746 0.9375L29.6191 0.908203ZM29.6484 2.8125L28.4766 2.87109L27.6562 2.95898L26.5723 3.13477L25.5762 3.36914L24.668 3.63281L23.6426 3.98438L22.6172 4.42383L21.9434 4.74609L21.2988 5.09766L20.6543 5.47852L19.6875 6.12305L19.7168 6.18164L20.5371 6.5625L21.4746 7.03125L22.0312 7.32422L22.8809 7.79297L23.6133 8.20312L24.0527 8.4668L24.6973 8.84766L25.2539 9.19922L25.8691 9.58008L27.1582 10.4297L27.7148 10.8105L28.7109 11.5137L29.7656 12.2754L29.9707 12.4219L30.1172 12.3633L30.5859 12.0117L31.6406 11.25L32.3145 10.7812L32.959 10.3418L33.3105 10.1074L34.0723 9.60938L35.1855 8.90625L35.9766 8.4375L36.6211 8.05664L37.4121 7.61719L38.0566 7.26562L39.082 6.73828L39.7266 6.41602L40.2539 6.18164V6.09375L39.873 5.83008L39.375 5.50781L38.7891 5.15625L38.0859 4.77539L37.3242 4.39453L36.2695 3.95508L35.0684 3.54492L34.043 3.28125L33.2227 3.10547L32.5195 2.98828L31.7871 2.90039L30.9668 2.8418L30.1172 2.8125H29.6484ZM53.291 2.8125L52.7637 2.87109L52.2949 2.98828L51.8262 3.16406L51.3281 3.45703L51.0059 3.7207L50.7129 3.98438L50.4199 4.33594L50.0977 4.86328L49.8926 5.36133L49.7754 5.77148L49.6875 6.47461L49.7168 7.00195L49.834 7.58789L50.0391 8.14453L50.3027 8.61328L50.5664 8.96484L50.6836 9.11133H50.7422L50.8008 9.22852L51.2109 9.58008L51.5918 9.81445L52.0605 10.0488L52.6465 10.2246L53.0566 10.2832H53.8184L54.3164 10.1953L54.9316 9.99023L55.3711 9.75586L55.752 9.49219L56.0449 9.22852L56.3086 8.96484L56.6016 8.55469L56.9238 7.93945L57.0703 7.4707L57.1582 6.94336V6.18164L57.0703 5.68359L56.9238 5.21484L56.748 4.80469L56.4551 4.33594L56.1914 4.01367L55.9277 3.75L55.459 3.39844L54.9023 3.10547L54.375 2.92969L53.9062 2.8418L53.584 2.8125H53.291ZM10.2246 5.6543L9.55078 5.71289L8.81836 5.85938L8.26172 6.03516L7.82227 6.24023L7.4707 6.44531L7.11914 6.70898L6.76758 7.06055L6.50391 7.38281L6.24023 7.82227L6.03516 8.26172L5.85938 8.81836L5.71289 9.55078L5.6543 10.1953V11.2207L5.74219 12.1582L5.91797 13.2129L6.12305 14.1211L6.41602 15.1465L6.76758 16.2012L7.06055 16.9922L7.44141 17.9297L7.79297 18.7207L8.08594 19.3652L8.32031 19.834L8.61328 19.7754L8.93555 19.7168L9.49219 19.6875L10.0195 19.7461L10.3125 19.8047L10.3418 19.7754L10.459 18.3984L10.6055 17.3438L10.8105 16.2891L11.1035 15.1465L11.3965 14.209L11.748 13.2715L12.1289 12.3926L12.5684 11.4844L12.9199 10.8398L13.1836 10.4004L13.4766 9.93164L13.7109 9.58008L14.0625 9.08203L14.3848 8.64258L14.7656 8.17383L15.0293 7.85156L15.3809 7.44141L15.7324 7.06055L16.0254 6.76758V6.70898L14.9707 6.35742L13.8867 6.06445L12.7441 5.83008L11.8945 5.71289L10.9863 5.6543H10.2246ZM47.7246 5.74219L46.8457 5.88867L45.9375 6.09375L44.707 6.44531L43.9746 6.67969V6.76758L44.3262 7.11914L44.3555 7.17773H44.4141L44.4727 7.29492L44.6777 7.5L44.9414 7.82227L45.2051 8.11523L45.5859 8.61328L45.8789 8.99414L46.2891 9.58008L46.6113 10.0781L46.9043 10.5469L47.2559 11.1621L47.6074 11.8359L48.0176 12.6855L48.3984 13.623L48.7207 14.5312L49.0723 15.7617L49.2773 16.6406L49.4531 17.6367L49.5996 18.8086L49.6582 19.6582V21.5625L49.5996 22.4121L49.4824 23.4375L49.4531 23.7598L49.5703 23.6426L50.0684 22.793L50.332 22.3535L50.7715 21.5625L51.2109 20.7422L51.6211 19.9512L52.0312 19.1016L52.5293 17.9883L52.9688 16.9043L53.2617 16.1133L53.584 15.1465L53.877 14.0918L54.0527 13.3301L54.2285 12.3926V12.1289L53.877 12.1582H52.9688L52.3242 12.0703L51.6797 11.8945L51.2109 11.7188L50.7422 11.4844L50.332 11.25L49.834 10.8691L49.4531 10.5176L49.2188 10.2832L48.8965 9.87305L48.6035 9.43359L48.2812 8.81836L48.0469 8.17383L47.9004 7.55859L47.8418 7.14844L47.8125 6.73828V6.41602L47.8711 5.74219H47.7246ZM17.9883 7.5L16.9922 8.49609L16.7871 8.73047L16.5234 9.02344V9.08203H16.4648L16.2012 9.4043L15.8789 9.81445L15.4688 10.3711L15.2051 10.752L14.8828 11.25L14.5312 11.8359L14.1504 12.5391L13.8281 13.1836L13.4766 14.0039L13.2129 14.707L12.9199 15.5859L12.6562 16.582L12.4219 17.7246L12.3047 18.5742L12.2168 19.6582L12.1875 20.7715L12.2168 21.5918L12.3047 22.6465L12.4805 23.8477L12.6562 24.668L12.8906 25.5762L13.1543 26.4258L13.5352 27.4219L13.8281 28.0957L13.8867 28.125L14.0332 27.9785L14.3262 27.5977L14.6191 27.2461L14.9414 26.8359L15.0293 26.748V26.6895H15.0879L15.4102 26.2793L15.7031 25.957L15.9375 25.6641L16.3184 25.2246L16.6406 24.873L16.9043 24.5508L17.0508 24.4043V24.3457H17.1094L17.3145 24.1113L17.5781 23.8184V23.7598H17.6367L17.8418 23.5254L18.1055 23.2324L18.2227 23.1152V23.0566H18.2812L18.4863 22.8223L18.75 22.5586L18.9551 22.3242L19.2188 22.0605V22.002H19.2773L19.4824 21.7676L20.2148 21.0352V20.9766L20.332 20.918L20.5371 20.6836L20.6836 20.5664V20.5078L20.8008 20.4492V20.3906L20.918 20.332L21.9141 19.3359L21.9727 19.3066V19.248L22.0898 19.1895L22.5293 18.75L22.7637 18.5449L23.0273 18.2812L23.4961 17.8711V17.8125L23.6133 17.7539L24.0234 17.373L24.2578 17.168L24.6094 16.8457L24.668 16.8164V16.7578L24.7852 16.6992L25.0781 16.4355L25.3125 16.2305L26.543 15.1758L26.9531 14.8535L27.2461 14.5898L27.5098 14.3848L28.2422 13.7988L28.418 13.6523L28.2715 13.5059L27.7148 13.0957L27.2168 12.7441L26.543 12.2754L25.3125 11.4551L24.8145 11.1328L24.1699 10.7227L23.3496 10.2246L22.6465 9.81445L22.0312 9.46289L21.1816 8.99414L20.0391 8.4082L19.2773 8.02734L18.2227 7.55859L18.1055 7.5H17.9883ZM41.8945 7.5L41.1035 7.85156L40.6641 8.05664L39.3164 8.73047L38.6719 9.08203L37.9688 9.46289L37.4707 9.75586L36.709 10.1953L36.2402 10.4883L35.4785 10.957L34.7168 11.4551L34.0137 11.9238L33.3691 12.3633L32.9004 12.6855L32.3438 13.0957L31.8457 13.4473L31.582 13.623L31.7285 13.7695L32.1094 14.0918L32.5195 14.4141L32.9297 14.7656L33.2227 15L34.3652 15.9668L34.7754 16.3184L35.0977 16.6113L35.332 16.8164L35.625 17.0801L35.8594 17.2852L36.2402 17.6367L36.4746 17.8418L36.9434 18.2812L37.3242 18.6328L37.5293 18.8379L37.7637 19.043L38.1445 19.4238H38.2031V19.4824L38.4375 19.6875L40.4004 21.6504L40.6055 21.8848L41.1035 22.3828L41.3086 22.6172L41.5137 22.8223L41.543 22.8809H41.6016L41.6602 22.998L41.9238 23.2617L42.1289 23.4961L42.2461 23.6426H42.3047L42.3633 23.7598L42.7734 24.1992L42.9785 24.4336L43.2422 24.7266L43.5059 25.0488L43.8574 25.4297L44.1211 25.752L44.3848 26.0449L44.6484 26.3672L44.9707 26.748L45.2344 27.0703L45.6445 27.5684L45.9961 28.0078L46.084 28.125L46.1719 28.0957L46.5527 27.1875L46.875 26.3086L47.168 25.3418L47.373 24.5215L47.5781 23.4375L47.6953 22.5586L47.7539 21.8848L47.7832 21.3574V19.834L47.6953 18.6914L47.5488 17.6367L47.3438 16.6113L47.1387 15.8203L46.8164 14.7949L46.4648 13.8574L46.084 13.0078L45.7031 12.2461L45.293 11.543L44.9414 10.957L44.5312 10.3711L44.2383 9.96094L43.916 9.55078L43.5645 9.14062L43.3008 8.81836L42.8613 8.34961L42.0117 7.5H41.8945ZM30 14.8535L29.6484 15.1172L29.1211 15.5273L28.623 15.9375L28.2422 16.2598L27.9785 16.4648L27.5977 16.7871L27.2754 17.0508L26.9824 17.3145L26.6602 17.5781L26.3672 17.8418L26.0449 18.1055L25.6055 18.5156L25.2832 18.7793L25.0195 19.043L24.7852 19.248L24.0234 19.9512L23.8477 20.0977V20.1562L23.7305 20.2148L23.2324 20.7129L22.998 20.918L20.7715 23.1445L20.5664 23.3789L20.2148 23.7305V23.7891H20.1562L19.9512 24.0234L19.5117 24.4922L19.1895 24.8438L18.8086 25.2539L18.6035 25.4883L18.3105 25.8105L18.1055 26.0449L17.7832 26.4258L17.4902 26.748L17.2266 27.0703L16.875 27.4805L16.6113 27.8027L16.2891 28.1836L15.9668 28.5938L15.6152 29.0039L15.3223 29.3848L15 29.7949L14.8828 29.9414L14.9121 30.1172L15.3809 30.8203L15.7617 31.3477L16.1426 31.8164L16.377 32.1094L16.7578 32.5488L17.1973 33.0176L17.8125 33.6328L18.0469 33.8379L18.3691 34.1309L18.6914 34.3945L19.1309 34.7461L19.6582 35.127L20.1562 35.4785L20.918 35.9473L21.4453 36.2402L22.0312 36.5625L22.207 36.709H22.2656L22.4414 37.0605L22.4707 37.1484L22.5 40.2832L26.1328 40.3125L26.2207 40.2832V26.6309L25.957 26.3379L23.7305 24.1113L23.7891 23.9941L23.9355 23.8477L24.082 23.7305L24.2285 23.5547L24.9902 22.793L25.1074 22.8516L25.6055 23.3496H25.6641V23.4082H25.7227V23.4668H25.7812V23.5254H25.8398V23.584H25.8984V23.6426H25.957V23.7012H26.0156V23.7598H26.0742V23.8184H26.1328V23.877H26.1914V23.9355H26.25V23.9941H26.3086V24.0527H26.3672V24.1113H26.4258V24.1699H26.4844V24.2285H26.543V24.2871H26.6016V24.3457H26.6602V24.4043H26.7188L26.7773 24.5215H26.8359L26.8945 24.6387H26.9531L27.0117 24.7559H27.0703V24.8145H27.1289V24.873H27.1875V24.9316H27.2461V24.9902H27.3047V25.0488H27.3633V25.1074H27.4219V25.166L27.6562 25.3711L27.9199 25.6641L28.0664 25.9277L28.0957 26.0156L28.125 40.2832L31.7578 40.3125L31.8457 40.2832L31.875 26.1621L31.9336 25.8984L32.1387 25.5762L34.9219 22.793H35.0098L35.2148 23.0273L36.2402 24.0527L36.2109 24.1699L33.7793 26.6016L33.75 27.334V40.2832L37.3828 40.3125L37.4707 40.2832L37.5 37.2949L37.5586 37.0312L37.6758 36.8262V36.7676H37.7344L37.8809 36.6211L38.3789 36.3281L39.0234 35.9766L39.6387 35.5957L40.2832 35.1562L40.8398 34.7461L41.25 34.4238L41.6602 34.0723L41.9824 33.8086L42.3926 33.3984L42.5977 33.2227L42.7734 33.0176L43.1836 32.6074V32.5488H43.2422L43.4473 32.3145L43.7695 31.9336L44.0039 31.6406L44.3848 31.1426L44.8535 30.4688L45.1172 30.0586L45.0879 29.8828L44.6777 29.3848L44.4141 29.0332L44.0918 28.6523L43.8574 28.3594L43.4473 27.8613L43.0957 27.4512L42.7734 27.0703L42.5098 26.748L42.2168 26.4258L41.9531 26.1035L41.5137 25.6348L41.3086 25.4004L40.957 24.9902L40.752 24.7852L40.7227 24.7266H40.6641L40.6055 24.6094L40.3125 24.3164L40.1074 24.082L39.9023 23.877L39.6973 23.6426L39.4629 23.4082L39.2578 23.1738L38.4082 22.3242L38.2617 22.1484H38.2031L38.1445 22.0312L37.793 21.6797H37.7344V21.6211H37.6758V21.5625L37.4414 21.3574L36.5918 20.5078L36.3574 20.3027L36.0938 20.0391L35.8594 19.834L35.625 19.5996L35.3906 19.3945L35.1855 19.1895L34.9512 18.9844L34.5703 18.6328L34.3359 18.4277L34.043 18.1641L33.8086 17.959L33.3984 17.6074L33.1055 17.3438L32.7832 17.0801L32.373 16.7285L31.9922 16.4062L31.6699 16.1426L31.1719 15.7324L30.7031 15.3516L30.293 15.0293L30.0586 14.8535H30ZM9.22852 21.5625L8.78906 21.6504L8.32031 21.8848L8.02734 22.1484L7.82227 22.3828L7.61719 22.793L7.5293 23.1445L7.5 23.5547L7.61719 24.082L7.79297 24.4336L8.05664 24.7559L8.37891 25.0195L8.67188 25.166L8.96484 25.2539L9.11133 25.2832H9.60938L9.99023 25.1953L10.4297 24.9609L10.6641 24.7852L10.7227 24.6387L10.5469 23.6719L10.4004 22.5L10.3418 21.8555L10.1074 21.709L9.69727 21.5918L9.22852 21.5625ZM46.3477 31.6113L46.1426 31.9043L45.791 32.4023L45.3809 32.9297L45.1172 33.252L44.7656 33.6621L44.4141 34.043L44.0039 34.4824L43.6816 34.8047L43.5938 34.8633V34.9219L43.4766 34.9805L43.2715 35.1855L43.2129 35.2148V35.2734L43.0957 35.332L42.8027 35.5957L42.3926 35.918L42.041 36.2109L41.4844 36.6211L40.5176 37.2656L39.9316 37.6172L39.4336 37.9102L39.375 38.0566V40.2832L39.9316 40.4004L40.2246 40.5176L40.5469 40.7227L40.8398 41.0156L41.0449 41.3379L41.1914 41.7188L41.2207 41.8945V44.3555L41.1328 44.6777L40.8984 45.1465L40.5762 45.498L40.2539 45.7031L39.873 45.8496L39.4043 45.9375L39.375 46.8457L39.9316 46.9629L40.2246 47.0801L40.5469 47.2852L40.8398 47.5781L41.0449 47.9004L41.1914 48.2812L41.2207 48.457V50.918L41.1328 51.2402L40.8984 51.709L40.752 51.8848V51.9727L41.2793 52.207L42.1289 52.5879L42.9199 52.9102L44.0332 53.3203L44.8242 53.584L45.9961 53.9062L46.9043 54.1113L47.8418 54.2578L48.75 54.3457H49.8926L50.625 54.2578L51.2695 54.1113L51.8555 53.9062L52.4707 53.584L52.8223 53.3203L53.1152 53.0566L53.3789 52.7637L53.6426 52.3828L53.877 51.9141L54.0234 51.5625L54.1992 50.8887L54.2871 50.3613L54.3457 49.6875V48.9258L54.2578 47.9004L54.1113 46.9629L53.9355 46.1426L53.6426 45.0586L53.2324 43.7988L53.0273 43.2422L52.5586 42.0703L52.1777 41.2207L51.8262 40.4297L51.6797 40.166L51.4453 40.1953L50.9473 40.2832H50.2148L49.7168 40.1953L49.1895 40.0195L48.7207 39.7852L48.3691 39.5508L47.9883 39.2285L47.6953 38.9062L47.4902 38.6133L47.2559 38.2031L47.0801 37.793L46.9336 37.2363L46.875 36.7676V36.416L46.9336 35.8887L47.0801 35.332L47.2852 34.8633L47.5195 34.4531L47.8125 34.0723L47.959 33.9258L47.9004 33.75L47.2559 32.8125L46.875 32.2852L46.5234 31.7871L46.377 31.6113H46.3477ZM13.5938 31.6406L12.832 32.6953L12.4512 33.252L12.1875 33.6328L11.1914 35.127L10.8398 35.6836L10.459 36.2988L10.1074 36.8848L9.72656 37.5293L9.31641 38.2617L8.96484 38.9062L8.61328 39.5801L8.32031 40.1367L7.76367 41.3086L7.44141 42.041L7.00195 43.125L6.62109 44.1797L6.26953 45.293L6.00586 46.3184L5.83008 47.1973L5.74219 47.7246V47.8418L6.32812 47.8125H6.76758L7.41211 47.8711L8.08594 48.0176L8.52539 48.1641L8.99414 48.3691L9.49219 48.6328L9.99023 48.9844L10.3711 49.3066L10.4883 49.4238H10.5469L10.6055 49.541L10.8105 49.7461L11.1914 50.2441L11.5137 50.7715L11.7773 51.3281L11.9824 51.9434L12.1289 52.6465L12.1582 52.9395V53.9355L12.1289 54.2285H12.3633L13.4766 54.0234L14.5312 53.7598L15.6738 53.4082L16.6699 53.0566L17.7539 52.6172L18.6328 52.2363L19.2188 51.9727L19.1895 51.8262L18.9844 51.5332L18.8379 51.2109L18.7793 50.9473L18.75 50.6836V48.6621L18.8086 48.2812L18.9551 47.9004L19.1602 47.5781L19.3652 47.3438L19.6582 47.1387L20.0391 46.9629L20.5957 46.8457V45.9375L20.2148 45.8789L19.9219 45.791L19.6289 45.6445L19.3359 45.4102L19.0723 45.1172L18.8379 44.6484L18.7793 44.3848L18.75 44.0918V42.0996L18.8086 41.7188L18.9551 41.3379L19.1602 41.0156L19.3652 40.7812L19.6582 40.5762L20.0391 40.4004L20.5371 40.3125L20.5957 40.2832V37.9395L20.2148 37.7051L19.6582 37.3828L18.9258 36.9141L18.3984 36.5332L17.9297 36.1816L17.4609 35.8008L17.1387 35.5371L16.8457 35.2734L16.6113 35.0684L15.9961 34.4531H15.9375L15.8789 34.3359L15.498 33.9551L15.293 33.7207L15.0293 33.4277L14.7656 33.1055L14.3848 32.6367L13.9746 32.0801L13.6816 31.6406H13.5938ZM50.4785 34.6875L50.0391 34.7754L49.5703 35.0098L49.2773 35.2734L49.1016 35.4785L48.9258 35.7715L48.8086 36.123L48.75 36.6504L48.8379 37.1191L48.9844 37.4707L49.2773 37.8516L49.5117 38.0566L49.834 38.2617L50.2148 38.3789L50.3613 38.4082H50.8887L51.3281 38.291L51.6504 38.1152L51.9727 37.8516L52.207 37.5586L52.3828 37.207L52.4707 36.8262V36.2988L52.3828 35.918L52.1777 35.5078L51.8555 35.1562L51.5332 34.9219L51.2109 34.7754L50.9766 34.7168L50.4785 34.6875ZM20.6543 42.1875L20.625 42.2461V44.0332H39.3457V42.1875H20.6543ZM22.5293 45.9375L22.5 45.9961V46.8457H37.4707V45.9375H22.5293ZM20.6543 48.75L20.625 48.8086V50.5957H39.3457V48.75H20.6543ZM6.41602 49.6875L5.85938 49.7461L5.39062 49.8633L4.89258 50.0684L4.45312 50.332L3.98438 50.7129L3.7793 50.918L3.48633 51.2988L3.22266 51.7383L2.98828 52.2949L2.87109 52.8223L2.8125 53.3203V53.584L2.90039 54.2285L3.04688 54.7266L3.28125 55.2539L3.57422 55.6934L3.80859 55.9863H3.86719L3.92578 56.1035L4.33594 56.4551L4.7168 56.6895L5.18555 56.9238L5.77148 57.0996L6.18164 57.1582H6.94336L7.44141 57.0703L8.05664 56.8652L8.55469 56.6016L9.02344 56.25L9.43359 55.8398L9.72656 55.4297L10.0488 54.8145L10.1953 54.3457L10.2832 53.8184V53.0566L10.1953 52.5586L10.0488 52.0898L9.87305 51.6797L9.58008 51.2109L9.31641 50.8887L9.05273 50.625L8.58398 50.2734L8.02734 49.9805L7.5 49.8047L7.03125 49.7168L6.70898 49.6875H6.41602ZM24.4629 52.5L24.6094 53.1445L24.8438 53.7891L25.1367 54.375L25.3418 54.6973L25.6055 55.0488L25.957 55.459L26.25 55.752L26.6602 56.0742L27.1875 56.4258L27.6562 56.6602L28.0664 56.8359L28.5059 56.9824L29.0625 57.0996L29.5605 57.1582H30.498L31.084 57.0703L31.6406 56.9238L32.1387 56.748L32.7539 56.4551L33.3691 56.0449L33.6914 55.7812L33.9258 55.5762V55.5176L34.043 55.459V55.4004H34.1016L34.3066 55.166L34.6582 54.6973L34.9805 54.1406L35.1855 53.7012L35.4199 52.998L35.5078 52.6465V52.5H24.4629Z" fill="#00B4DD"/>
</g>
<defs>
<clipPath id="clip0_123_210">
<rect width="60" height="60" fill="white"/>
</clipPath>
</defs>
</svg>
